<?xml version="1.0" encoding="UTF-8" standalone="no"?>
<!-- Created with Inkscape (http://www.inkscape.org/) -->

<svg
   xmlns:dc="http://purl.org/dc/elements/1.1/"
   xmlns:cc="http://creativecommons.org/ns#"
   xmlns:rdf="http://www.w3.org/1999/02/22-rdf-syntax-ns#"
   xmlns:svg="http://www.w3.org/2000/svg"
   xmlns="http://www.w3.org/2000/svg"
   xmlns:sodipodi="http://sodipodi.sourceforge.net/DTD/sodipodi-0.dtd"
   xmlns:inkscape="http://www.inkscape.org/namespaces/inkscape"
   width="202.961mm"
   height="131.703mm"
   viewBox="0 0 202.961 131.703"
   version="1.1"
   id="svg2907"
   inkscape:version="0.92.3 (2405546, 2018-03-11)"
   sodipodi:docname="decor-azul.svg">
  <defs
     id="defs2901">
    <linearGradient
       x1="1.821"
       y1="69.990997"
       x2="942.55103"
       y2="69.990997"
       gradientUnits="userSpaceOnUse"
       gradientTransform="matrix(-0.85564149,-3.7082008,-3.7116611,0.85643999,10456.688,-13402.171)"
       spreadMethod="pad"
       id="linearGradient2812">
      <stop
         style="stop-opacity:1;stop-color:#fdd622"
         offset="0"
         id="stop2806" />
      <stop
         style="stop-opacity:1;stop-color:#e30613"
         offset="0.50599998"
         id="stop2808" />
      <stop
         style="stop-opacity:1;stop-color:#ef7d00"
         offset="1"
         id="stop2810" />
    </linearGradient>
    <linearGradient
       x1="1.7539999"
       y1="72.708"
       x2="941.45599"
       y2="72.708"
       gradientUnits="userSpaceOnUse"
       gradientTransform="matrix(-0.85564149,-3.7082008,-3.7116611,0.85643999,10456.688,-13402.171)"
       spreadMethod="pad"
       id="linearGradient2822">
      <stop
         style="stop-opacity:1;stop-color:#fdd622"
         offset="0"
         id="stop2816" />
      <stop
         style="stop-opacity:1;stop-color:#e30613"
         offset="0.50599998"
         id="stop2818" />
      <stop
         style="stop-opacity:1;stop-color:#ef7d00"
         offset="1"
         id="stop2820" />
    </linearGradient>
    <linearGradient
       x1="1.688"
       y1="75.462997"
       x2="940.36102"
       y2="75.462997"
       gradientUnits="userSpaceOnUse"
       gradientTransform="matrix(-0.85564149,-3.7082008,-3.7116611,0.85643999,10456.688,-13402.171)"
       spreadMethod="pad"
       id="linearGradient2832">
      <stop
         style="stop-opacity:1;stop-color:#fdd622"
         offset="0"
         id="stop2826" />
      <stop
         style="stop-opacity:1;stop-color:#e30613"
         offset="0.50599998"
         id="stop2828" />
      <stop
         style="stop-opacity:1;stop-color:#ef7d00"
         offset="1"
         id="stop2830" />
    </linearGradient>
    <linearGradient
       x1="1.622"
       y1="78.379997"
       x2="939.26501"
       y2="78.379997"
       gradientUnits="userSpaceOnUse"
       gradientTransform="matrix(-0.85564149,-3.7082008,-3.7116611,0.85643999,10456.688,-13402.171)"
       spreadMethod="pad"
       id="linearGradient2842">
      <stop
         style="stop-opacity:1;stop-color:#fdd622"
         offset="0"
         id="stop2836" />
      <stop
         style="stop-opacity:1;stop-color:#e30613"
         offset="0.50599998"
         id="stop2838" />
      <stop
         style="stop-opacity:1;stop-color:#ef7d00"
         offset="1"
         id="stop2840" />
    </linearGradient>
    <linearGradient
       x1="1.558"
       y1="81.407997"
       x2="938.16901"
       y2="81.407997"
       gradientUnits="userSpaceOnUse"
       gradientTransform="matrix(-0.85564149,-3.7082008,-3.7116611,0.85643999,10456.688,-13402.171)"
       spreadMethod="pad"
       id="linearGradient2852">
      <stop
         style="stop-opacity:1;stop-color:#fdd622"
         offset="0"
         id="stop2846" />
      <stop
         style="stop-opacity:1;stop-color:#e30613"
         offset="0.50599998"
         id="stop2848" />
      <stop
         style="stop-opacity:1;stop-color:#ef7d00"
         offset="1"
         id="stop2850" />
    </linearGradient>
    <linearGradient
       x1="1.495"
       y1="84.542"
       x2="937.07202"
       y2="84.542"
       gradientUnits="userSpaceOnUse"
       gradientTransform="matrix(-0.85564149,-3.7082008,-3.7116611,0.85643999,10456.688,-13402.171)"
       spreadMethod="pad"
       id="linearGradient2862">
      <stop
         style="stop-opacity:1;stop-color:#fdd622"
         offset="0"
         id="stop2856" />
      <stop
         style="stop-opacity:1;stop-color:#e30613"
         offset="0.50599998"
         id="stop2858" />
      <stop
         style="stop-opacity:1;stop-color:#ef7d00"
         offset="1"
         id="stop2860" />
    </linearGradient>
    <linearGradient
       x1="1.433"
       y1="87.779999"
       x2="935.974"
       y2="87.779999"
       gradientUnits="userSpaceOnUse"
       gradientTransform="matrix(-0.85564149,-3.7082008,-3.7116611,0.85643999,10456.688,-13402.171)"
       spreadMethod="pad"
       id="linearGradient2872">
      <stop
         style="stop-opacity:1;stop-color:#fdd622"
         offset="0"
         id="stop2866" />
      <stop
         style="stop-opacity:1;stop-color:#e30613"
         offset="0.50599998"
         id="stop2868" />
      <stop
         style="stop-opacity:1;stop-color:#ef7d00"
         offset="1"
         id="stop2870" />
    </linearGradient>
    <linearGradient
       x1="1.374"
       y1="90.355003"
       x2="934.87598"
       y2="90.355003"
       gradientUnits="userSpaceOnUse"
       gradientTransform="matrix(-0.85564149,-3.7082008,-3.7116611,0.85643999,10456.688,-13402.171)"
       spreadMethod="pad"
       id="linearGradient2882">
      <stop
         style="stop-opacity:1;stop-color:#fdd622"
         offset="0"
         id="stop2876" />
      <stop
         style="stop-opacity:1;stop-color:#e30613"
         offset="0.50599998"
         id="stop2878" />
      <stop
         style="stop-opacity:1;stop-color:#ef7d00"
         offset="1"
         id="stop2880" />
    </linearGradient>
    <linearGradient
       x1="1.317"
       y1="94.238998"
       x2="933.77802"
       y2="94.238998"
       gradientUnits="userSpaceOnUse"
       gradientTransform="matrix(-0.85564149,-3.7082008,-3.7116611,0.85643999,10456.688,-13402.171)"
       spreadMethod="pad"
       id="linearGradient2892">
      <stop
         style="stop-opacity:1;stop-color:#fdd622"
         offset="0"
         id="stop2886" />
      <stop
         style="stop-opacity:1;stop-color:#e30613"
         offset="0.50599998"
         id="stop2888" />
      <stop
         style="stop-opacity:1;stop-color:#ef7d00"
         offset="1"
         id="stop2890" />
    </linearGradient>
    <linearGradient
       x1="1.262"
       y1="97.918999"
       x2="932.67999"
       y2="97.918999"
       gradientUnits="userSpaceOnUse"
       gradientTransform="matrix(-0.85564149,-3.7082008,-3.7116611,0.85643999,10456.688,-13402.171)"
       spreadMethod="pad"
       id="linearGradient2902">
      <stop
         style="stop-opacity:1;stop-color:#fdd622"
         offset="0"
         id="stop2896" />
      <stop
         style="stop-opacity:1;stop-color:#e30613"
         offset="0.50599998"
         id="stop2898" />
      <stop
         style="stop-opacity:1;stop-color:#ef7d00"
         offset="1"
         id="stop2900" />
    </linearGradient>
    <linearGradient
       x1="1.212"
       y1="101.769"
       x2="931.58197"
       y2="101.769"
       gradientUnits="userSpaceOnUse"
       gradientTransform="matrix(-0.85564149,-3.7082008,-3.7116611,0.85643999,10456.688,-13402.171)"
       spreadMethod="pad"
       id="linearGradient2912">
      <stop
         style="stop-opacity:1;stop-color:#fdd622"
         offset="0"
         id="stop2906" />
      <stop
         style="stop-opacity:1;stop-color:#e30613"
         offset="0.50599998"
         id="stop2908" />
      <stop
         style="stop-opacity:1;stop-color:#ef7d00"
         offset="1"
         id="stop2910" />
    </linearGradient>
    <linearGradient
       x1="1.166"
       y1="102.904"
       x2="930.48401"
       y2="102.904"
       gradientUnits="userSpaceOnUse"
       gradientTransform="matrix(-0.85564149,-3.7082008,-3.7116611,0.85643999,10456.688,-13402.171)"
       spreadMethod="pad"
       id="linearGradient2922">
      <stop
         style="stop-opacity:1;stop-color:#fdd622"
         offset="0"
         id="stop2916" />
      <stop
         style="stop-opacity:1;stop-color:#e30613"
         offset="0.50599998"
         id="stop2918" />
      <stop
         style="stop-opacity:1;stop-color:#ef7d00"
         offset="1"
         id="stop2920" />
    </linearGradient>
    <linearGradient
       x1="1.127"
       y1="102.903"
       x2="929.38702"
       y2="102.903"
       gradientUnits="userSpaceOnUse"
       gradientTransform="matrix(-0.85564149,-3.7082008,-3.7116611,0.85643999,10456.688,-13402.171)"
       spreadMethod="pad"
       id="linearGradient2932">
      <stop
         style="stop-opacity:1;stop-color:#fdd622"
         offset="0"
         id="stop2926" />
      <stop
         style="stop-opacity:1;stop-color:#e30613"
         offset="0.50599998"
         id="stop2928" />
      <stop
         style="stop-opacity:1;stop-color:#ef7d00"
         offset="1"
         id="stop2930" />
    </linearGradient>
    <linearGradient
       x1="1.094"
       y1="102.73"
       x2="928.28998"
       y2="102.73"
       gradientUnits="userSpaceOnUse"
       gradientTransform="matrix(-0.85564149,-3.7082008,-3.7116611,0.85643999,10456.688,-13402.171)"
       spreadMethod="pad"
       id="linearGradient2942">
      <stop
         style="stop-opacity:1;stop-color:#fdd622"
         offset="0"
         id="stop2936" />
      <stop
         style="stop-opacity:1;stop-color:#e30613"
         offset="0.50599998"
         id="stop2938" />
      <stop
         style="stop-opacity:1;stop-color:#ef7d00"
         offset="1"
         id="stop2940" />
    </linearGradient>
    <linearGradient
       x1="1.0700001"
       y1="102.459"
       x2="927.19397"
       y2="102.459"
       gradientUnits="userSpaceOnUse"
       gradientTransform="matrix(-0.85564149,-3.7082008,-3.7116611,0.85643999,10456.688,-13402.171)"
       spreadMethod="pad"
       id="linearGradient2952">
      <stop
         style="stop-opacity:1;stop-color:#fdd622"
         offset="0"
         id="stop2946" />
      <stop
         style="stop-opacity:1;stop-color:#e30613"
         offset="0.50599998"
         id="stop2948" />
      <stop
         style="stop-opacity:1;stop-color:#ef7d00"
         offset="1"
         id="stop2950" />
    </linearGradient>
    <linearGradient
       x1="0.93599999"
       y1="102.142"
       x2="926.09802"
       y2="102.142"
       gradientUnits="userSpaceOnUse"
       gradientTransform="matrix(-0.85564149,-3.7082008,-3.7116611,0.85643999,10456.688,-13402.171)"
       spreadMethod="pad"
       id="linearGradient2962">
      <stop
         style="stop-opacity:1;stop-color:#fdd622"
         offset="0"
         id="stop2956" />
      <stop
         style="stop-opacity:1;stop-color:#e30613"
         offset="0.50599998"
         id="stop2958" />
      <stop
         style="stop-opacity:1;stop-color:#ef7d00"
         offset="1"
         id="stop2960" />
    </linearGradient>
    <linearGradient
       x1="0.79100001"
       y1="101.811"
       x2="925.00299"
       y2="101.811"
       gradientUnits="userSpaceOnUse"
       gradientTransform="matrix(-0.85564149,-3.7082008,-3.7116611,0.85643999,10456.688,-13402.171)"
       spreadMethod="pad"
       id="linearGradient2972">
      <stop
         style="stop-opacity:1;stop-color:#fdd622"
         offset="0"
         id="stop2966" />
      <stop
         style="stop-opacity:1;stop-color:#e30613"
         offset="0.50599998"
         id="stop2968" />
      <stop
         style="stop-opacity:1;stop-color:#ef7d00"
         offset="1"
         id="stop2970" />
    </linearGradient>
    <linearGradient
       x1="0.63800001"
       y1="101.483"
       x2="923.909"
       y2="101.483"
       gradientUnits="userSpaceOnUse"
       gradientTransform="matrix(-0.85564149,-3.7082008,-3.7116611,0.85643999,10456.688,-13402.171)"
       spreadMethod="pad"
       id="linearGradient2982">
      <stop
         style="stop-opacity:1;stop-color:#fdd622"
         offset="0"
         id="stop2976" />
      <stop
         style="stop-opacity:1;stop-color:#e30613"
         offset="0.50599998"
         id="stop2978" />
      <stop
         style="stop-opacity:1;stop-color:#ef7d00"
         offset="1"
         id="stop2980" />
    </linearGradient>
    <linearGradient
       x1="0.48300001"
       y1="101.167"
       x2="922.815"
       y2="101.167"
       gradientUnits="userSpaceOnUse"
       gradientTransform="matrix(-0.85564149,-3.7082008,-3.7116611,0.85643999,10456.688,-13402.171)"
       spreadMethod="pad"
       id="linearGradient2992">
      <stop
         style="stop-opacity:1;stop-color:#fdd622"
         offset="0"
         id="stop2986" />
      <stop
         style="stop-opacity:1;stop-color:#e30613"
         offset="0.50599998"
         id="stop2988" />
      <stop
         style="stop-opacity:1;stop-color:#ef7d00"
         offset="1"
         id="stop2990" />
    </linearGradient>
    <linearGradient
       x1="0.33700001"
       y1="100.865"
       x2="921.72198"
       y2="100.865"
       gradientUnits="userSpaceOnUse"
       gradientTransform="matrix(-0.85564149,-3.7082008,-3.7116611,0.85643999,10456.688,-13402.171)"
       spreadMethod="pad"
       id="linearGradient3002">
      <stop
         style="stop-opacity:1;stop-color:#fdd622"
         offset="0"
         id="stop2996" />
      <stop
         style="stop-opacity:1;stop-color:#e30613"
         offset="0.50599998"
         id="stop2998" />
      <stop
         style="stop-opacity:1;stop-color:#ef7d00"
         offset="1"
         id="stop3000" />
    </linearGradient>
    <linearGradient
       x1="0.207"
       y1="100.58"
       x2="920.63"
       y2="100.58"
       gradientUnits="userSpaceOnUse"
       gradientTransform="matrix(-0.85564149,-3.7082008,-3.7116611,0.85643999,10456.688,-13402.171)"
       spreadMethod="pad"
       id="linearGradient3012">
      <stop
         style="stop-opacity:1;stop-color:#fdd622"
         offset="0"
         id="stop3006" />
      <stop
         style="stop-opacity:1;stop-color:#e30613"
         offset="0.50599998"
         id="stop3008" />
      <stop
         style="stop-opacity:1;stop-color:#ef7d00"
         offset="1"
         id="stop3010" />
    </linearGradient>
    <linearGradient
       x1="0.096000001"
       y1="100.314"
       x2="919.53802"
       y2="100.314"
       gradientUnits="userSpaceOnUse"
       gradientTransform="matrix(-0.85564149,-3.7082008,-3.7116611,0.85643999,10456.688,-13402.171)"
       spreadMethod="pad"
       id="linearGradient3022">
      <stop
         style="stop-opacity:1;stop-color:#fdd622"
         offset="0"
         id="stop3016" />
      <stop
         style="stop-opacity:1;stop-color:#e30613"
         offset="0.50599998"
         id="stop3018" />
      <stop
         style="stop-opacity:1;stop-color:#ef7d00"
         offset="1"
         id="stop3020" />
    </linearGradient>
    <linearGradient
       x1="0"
       y1="100.066"
       x2="918.47302"
       y2="100.066"
       gradientUnits="userSpaceOnUse"
       gradientTransform="matrix(-0.85564149,-3.7082008,-3.7116611,0.85643999,10456.688,-13402.171)"
       spreadMethod="pad"
       id="linearGradient3032">
      <stop
         style="stop-opacity:1;stop-color:#fdd622"
         offset="0"
         id="stop3026" />
      <stop
         style="stop-opacity:1;stop-color:#e30613"
         offset="0.50599998"
         id="stop3028" />
      <stop
         style="stop-opacity:1;stop-color:#ef7d00"
         offset="1"
         id="stop3030" />
    </linearGradient>
  </defs>
  <sodipodi:namedview
     id="base"
     pagecolor="#ffffff"
     bordercolor="#666666"
     borderopacity="1.0"
     inkscape:pageopacity="0.0"
     inkscape:pageshadow="2"
     inkscape:zoom="0.42053519"
     inkscape:cx="337.52173"
     inkscape:cy="565.31875"
     inkscape:document-units="mm"
     inkscape:current-layer="layer1"
     showgrid="false" />
  <metadata
     id="metadata2904">
    <rdf:RDF>
      <cc:Work
         rdf:about="">
        <dc:format>image/svg+xml</dc:format>
        <dc:type
           rdf:resource="http://purl.org/dc/dcmitype/StillImage" />
        <dc:title></dc:title>
      </cc:Work>
    </rdf:RDF>
  </metadata>
  <g
     inkscape:label="Layer 1"
     inkscape:groupmode="layer"
     id="layer1"
     transform="translate(0,-165.297)">
    <g
       style="display:inline;opacity:0.5"
       id="g3548"
       transform="matrix(0.23286549,0,0,0.232782,-17.355409,162.71509)"
       inkscape:label="g3548">
      <path
         d="m 915.94,576.87 c -16.82,0 -34.42999,-7.52002 -46.27997,-19.13001 -20.16998,-19.78003 -28.72998,-47.88 -35.76001,-74.95999 l -1.19,-4.60001 c -6.58002,-25.48001 -13.38,-51.82 -29.59002,-72.48999 -22.35999,-28.5 -63.19001,-44.25 -106.58997,-41.08999 -40.78998,2.97 -79.60999,20.73001 -112.21002,37.70999 -7.54999,3.94 -15.20001,8.04001 -22.59003,12.01999 -27.19,14.61999 -55.29999,29.73001 -85.07001,39.51001 -20.16,6.61999 -40.23999,9.48001 -58.05999,8.26999 -21.28,-1.45002 -38.58002,-8.54001 -51.44001,-21.06 -21.44,-20.89002 -28.72,-55.38001 -21.61999,-102.5 2.72,-18.07999 6.67001,-36.25 10.48999,-53.83002 5.13,-23.64001 10.44,-48.08 12.82001,-72.54001 3.41,-35.11 1.32,-84.76999 -27.95002,-121.889997 -25.66,-32.549999 -70.86999,-51.64 -121.05999,-51.09 -42.80001,0.470001 -83.63001,13.159999 -131.770008,32.069995 l -0.370003,-0.93 C 135.93996,51.389957 176.86996,38.66996 219.82996,38.199959 c 50.42999,-0.57 96.01001,18.68 121.85998,51.470001 29.48001,37.39 31.57999,87.30999 28.16001,122.61001 -2.38001,24.50999 -7.69001,48.98001 -12.82999,72.64999 -3.81,17.56 -7.76001,35.72 -10.47,53.76001 -7.04001,46.79001 0.13,80.98999 21.32998,101.63999 23.17002,22.57 63.72001,27.26001 108.48001,12.55999 29.69001,-9.75 57.75998,-24.85 84.91001,-39.44 7.39001,-3.98001 15.03998,-8.09 22.59997,-12.01999 32.69001,-17.03 71.63001,-34.83999 112.59998,-37.82998 43.71002,-3.18 84.88,12.70999 107.45001,41.47 16.34003,20.82998 23.16998,47.28 29.77002,72.86001 l 1.19,4.60001 c 7,26.94 15.5,54.88998 35.48999,74.49002 19.28003,18.90997 54.04999,26.82001 75.08002,8.46997 l 0.65997,0.75 c -8.48999,7.40002 -19.15997,10.62 -30.15997,10.63001 h -0.01 z"
         style="fill:#29abe2;fill-opacity:1;fill-rule:nonzero;stroke:none"
         id="path3550"
         inkscape:connector-curvature="0" />
      <path
         d="m 906.62,575.14001 c -16.64002,0 -33.88001,-7.34002 -45.60999,-18.33001 -20.21997,-18.94 -29.32001,-45.95999 -36.91998,-72 -0.5,-1.70001 -0.98999,-3.4 -1.47998,-5.10999 -5.89002,-20.35 -11.97998,-41.39999 -23.18,-59.41998 -2.26001,-3.63001 -4.69,-7.09 -7.22998,-10.26001 -22.52002,-28.14999 -61.52002,-43.91998 -104.29998,-42.16998 -37.09998,1.51001 -71.27997,15.07998 -96.91999,26.73999 -3.63,1.64999 -7.34997,3.38 -11.36999,5.29998 -7.41999,3.54001 -14.90998,7.25 -22.15998,10.82999 -25.77002,12.75 -52.41998,25.92001 -80.58999,34.09 -20.72,6 -72.42002,16.44 -104.73001,-16.18 -2.34,-2.36999 -4.54999,-4.92999 -6.54999,-7.63 -15.54001,-20.95999 -20.85001,-52.35001 -15.79999,-93.29999 2.13001,-17.22 5.31,-34.5 8.39002,-51.20001 4.32998,-23.48 8.79998,-47.75 10.32,-71.92 1.98999,-31.38 -1.64999,-59.28 -10.79998,-82.94 -5.01999,-12.98 -11.75,-24.629998 -20.01001,-34.619996 -25.82001,-31.25 -70.66999,-49.630001 -120.01001,-49.11 -42.21,0.43 -82.59,12.569999 -130.250004,30.669998 l -0.360001,-0.93 c 47.759995,-18.14 88.240005,-30.309998 130.600005,-30.739998 49.59001,-0.529999 94.78002,17.989998 120.78999,49.470001 8.32001,10.080002 15.10999,21.820005 20.17002,34.900005 9.20999,23.79 12.85998,51.84 10.86999,83.36 -1.53,24.23 -6.01001,48.53 -10.33999,72.04001 -3.07999,16.69001 -6.26001,33.95002 -8.38001,51.13999 -5.01999,40.67999 0.23999,71.83001 15.60999,92.58001 1.97,2.66001 4.14001,5.19001 6.45001,7.51999 31.92999,32.23999 83.19,21.88001 103.73999,15.92002 28.09,-8.14002 54.69998,-21.29999 80.43002,-34.03 7.25,-3.57999 14.73999,-7.29001 22.16999,-10.84 4.03003,-1.92001 7.75,-3.66 11.39001,-5.31 25.71997,-11.69 60.02002,-25.30999 97.28998,-26.82998 19.96997,-0.81 39.96002,2.33999 57.81,9.13 19.34997,7.35001 35.71002,18.91001 47.30999,33.41001 2.56,3.20001 5.02002,6.69 7.28998,10.35 11.26001,18.13999 17.38001,39.25 23.28998,59.67002 0.48999,1.70999 0.98999,3.41 1.47998,5.10998 7.56,25.92001 16.60999,52.78998 36.64001,71.54999 19.06,17.86999 52.91999,25.96002 74.38001,7.89001 l 0.64001,0.77002 c -8.64001,7.27002 -19.23999,10.40003 -30.09002,10.40003 z"
         style="fill:#29abe2;fill-opacity:1;fill-rule:nonzero;stroke:none"
         id="path3552"
         inkscape:connector-curvature="0" />
      <path
         d="m 897.15997,573.26001 c -2.53997,0 -5.13,-0.16998 -7.75,-0.5 -13.5,-1.72998 -27.01001,-7.88001 -37.07,-16.85999 -20.27002,-18.09997 -29.91999,-44.04 -38.07001,-69.04998 -0.60999,-1.88001 -1.21997,-3.76999 -1.83002,-5.67002 -6.27002,-19.39999 -12.75,-39.45999 -23.90997,-56.79998 -2.28003,-3.54001 -4.71997,-6.91001 -7.25,-10.01001 -22.15003,-27.12 -59.83002,-43.25 -100.96002,-43.25 -0.34998,0 -0.70002,0 -1.06,0 -35.97998,0.23999 -68.85999,11.79 -93.47998,21.82 -3.46002,1.41001 -7.02002,2.9 -10.89002,4.56 -7.23999,3.10999 -14.53003,6.38001 -21.58001,9.53 -24.39002,10.92001 -49.62,22.20001 -76.26001,28.78 -19.78,4.88 -69.12,12.73999 -99.95999,-19.57001 -2.25,-2.35998 -4.38001,-4.92001 -6.32001,-7.60001 -15.14002,-20.98001 -20.62,-50.98999 -16.75,-91.75 1.56,-16.27999 4,-32.58001 6.35998,-48.33001 3.5,-23.4 7.12,-47.59 7.76999,-71.55001 0.82999,-30.39 -3.60998,-57.3 -13.20001,-79.98 -5.28,-12.48 -12.16,-23.659995 -20.47,-33.249999 C 308.4899,53.819992 264.00989,36.14999 215.5199,36.64999 c -41.61,0.389999 -81.55001,11.98 -128.729998,29.280003 L 86.449905,64.98999 C 133.71991,47.659988 173.7599,36.039989 215.5099,35.64999 c 22.94001,-0.189999 45.68999,3.650002 65.77001,11.16 22.07998,8.27 40.23001,20.480003 53.95999,36.310005 8.38,9.669998 15.32001,20.940005 20.63998,33.509995 9.65,22.81 14.12,49.86 13.28,80.40001 -0.64999,24.02 -4.28,48.25 -7.79001,71.67001 -2.35998,15.73999 -4.79001,32.01999 -6.35,48.28 -3.85001,40.51001 1.57,70.30002 16.57,91.07001 1.91001,2.64999 4.01001,5.17001 6.23999,7.5 30.48002,31.92999 79.38001,24.11999 99,19.29001 26.54999,-6.56 51.73002,-17.82999 76.09,-28.73001 7.04999,-3.16001 14.34998,-6.42002 21.59998,-9.54001 3.86999,-1.66001 7.44,-3.16001 10.90002,-4.57001 24.71002,-10.07001 57.70001,-21.64999 93.84998,-21.89001 41.84997,-0.26999 80.27002,16.01998 102.79998,43.60998 2.56,3.13001 5.02002,6.53 7.32001,10.10001 11.22998,17.45001 17.72998,37.57998 24.01001,57.04001 0.60999,1.89001 1.21997,3.77999 1.83002,5.66 8.09997,24.88 17.70001,50.68002 37.78998,68.62002 18.92999,16.91999 52.47998,24.52002 73.66998,7.32001 l 0.63,0.78003 c -8.09002,6.57001 -18.59002,10.02002 -30.15002,10.02002 l -0.01,-6e-5 z"
         style="fill:#29abe2;fill-opacity:1;fill-rule:nonzero;stroke:none"
         id="path3554"
         inkscape:connector-curvature="0" />
      <path
         d="m 888,571.41998 c -16.04999,0 -32.62,-6.52002 -44.31,-16.46002 -20.34002,-17.28003 -30.53003,-42.13 -39.22998,-66.10001 -0.75,-2.07998 -1.51001,-4.17001 -2.26001,-6.26998 -6.61999,-18.43 -13.46002,-37.48999 -24.56,-54.14002 -2.28997,-3.45001 -4.73999,-6.73001 -7.27001,-9.76999 -22.14002,-26.57001 -59.43,-43.13998 -99.74,-44.32998 -34.82,-1.03 -66.41003,8.48999 -90.03997,16.89001 -3.31,1.17999 -6.71003,2.42999 -10.40003,3.82001 -7.01001,2.64999 -14.06,5.44 -20.86999,8.13 -23.06,9.12 -46.91001,18.54999 -72.06,23.57001 -17.62,3.5 -34.92999,3.85999 -50.06,1.03 -18.51001,-3.45999 -33.69,-11.53 -45.11999,-23.98001 -2.17002,-2.35999 -4.22,-4.91001 -6.10001,-7.57999 -14.53,-20.69 -20.32001,-50.19 -17.70001,-90.19998 1.01001,-15.23999 2.73999,-30.45001 4.41,-45.16998 2.78,-24.5 5.41001,-47.64 5.13001,-71.48001 -0.32001,-29.4 -5.57001,-55.32001 -15.60999,-77.03 -5.53,-11.97001 -12.57001,-22.690006 -20.92999,-31.870006 -26.22,-28.75 -68.48999,-45.16 -116.17,-45.16 -0.58,0 -1.16,0 -1.74,0 -45.59,0.380001 -89.57,14.59 -127.210003,27.880001 L 85.830025,62.260036 C 123.55003,48.950035 167.61002,34.710037 213.36002,34.320038 c 48.70001,-0.41 91.92999,16.169998 118.66,45.479996 8.42999,9.25 15.53,20.059997 21.10001,32.130006 10.08999,21.83999 15.36999,47.89 15.70001,77.43001 0.26999,23.89999 -2.48001,48.14999 -5.14002,71.6 -1.67001,14.70001 -3.39001,29.9 -4.41,45.12 -2.60001,39.76999 3.13,69.07 17.51999,89.56 1.85,2.63 3.88,5.14999 6.01999,7.48001 29.01999,31.6 75.58001,26.36999 94.25,22.64999 25.06,-5 48.85998,-14.42001 71.88,-23.51999 6.82001,-2.70001 13.87,-5.48001 20.89002,-8.14001 3.69,-1.39002 7.09997,-2.65 10.41998,-3.82001 23.71002,-8.44 55.41998,-17.98001 90.41003,-16.95001 40.59003,1.20001 78.15003,17.89999 100.47998,44.69 2.54999,3.06 5.02002,6.38 7.34003,9.85001 11.16998,16.75 18.03003,35.86999 24.66998,54.36001 0.75,2.10001 1.5,4.19 2.26001,6.26001 8.65003,23.84998 18.78003,48.56 38.93,65.67999 19.21002,16.33002 51.76001,23.31 72.97003,6.73999 l 0.61999,0.78998 c -8.66998,6.77002 -19.17999,9.69 -29.91998,9.69 l -0.0101,0.02 z"
         style="fill:#29abe2;fill-opacity:1;fill-rule:nonzero;stroke:none"
         id="path3556"
         inkscape:connector-curvature="0" />
      <path
         d="m 878.48999,569.56 c -2.32001,0 -4.69,-0.13001 -7.08002,-0.40003 -13.03997,-1.46997 -26.29998,-6.97998 -36.39001,-15.10998 -20.42999,-16.46002 -31.15003,-40.22003 -40.38001,-63.15 -0.92999,-2.29998 -1.84997,-4.61999 -2.78003,-6.95001 -6.94,-17.44 -14.11999,-35.48001 -25.13,-51.39999 -2.32001,-3.35999 -4.78003,-6.57001 -7.28998,-9.51999 -21.94,-25.76999 -58.36999,-42.73999 -97.46002,-45.41 -33.63001,-2.29999 -63.95001,5.19 -86.60999,11.97 -3.19,0.95001 -6.44,1.95999 -9.91998,3.07 -6.72998,2.16001 -13.46997,4.43 -19.98999,6.64002 -22.78998,7.70001 -44.31,14.98001 -68.03,18.45999 -22.22,3.23999 -63.51999,4.11999 -90.41,-26.34 -2.09,-2.35998 -4.07001,-4.89999 -5.88001,-7.54998 -14.1,-20.65 -20.01999,-48.82001 -18.64999,-88.65 0.5,-14.07001 1.56,-28.07998 2.59,-41.63 1.85998,-24.65 3.61999,-47.94001 2.36999,-71.76999 -1.48001,-28.4 -7.54001,-53.33 -18.01001,-74.07 -5.78,-11.460001 -12.98001,-21.720003 -21.39999,-30.500002 -26.70999,-27.790001 -69.31,-43.529999 -116.86,-43.169998 -44.92,0.330002 -88.43,13.84 -125.680003,26.48 l -0.32,-0.950001 c 37.330003,-12.66 80.919993,-26.200001 126.000003,-26.529999 47.87001,-0.349998 90.69999,15.489998 117.59001,43.480003 8.48999,8.839997 15.73999,19.190003 21.57001,30.739997 10.52999,20.87 16.63,45.93 18.10998,74.47001 1.26001,23.89999 -0.51001,47.20999 -2.36999,71.89999 -1.01999,13.54001 -2.07999,27.54999 -2.59,41.59 -1.37,39.61002 4.5,67.59 18.47,88.05002 1.79001,2.61999 3.73999,5.11999 5.79999,7.45999 26.57999,30.11002 67.48999,29.23001 89.51999,26.01001 23.63,-3.47 45.12002,-10.73001 67.86001,-18.41 6.52002,-2.21 13.27002,-4.48001 20,-6.64002 3.48999,-1.11999 6.73999,-2.11999 9.94001,-3.07999 22.73999,-6.79998 53.16998,-14.30999 86.96997,-12.01 39.34997,2.67999 76.03997,19.79 98.15002,45.76 2.53998,2.98002 5.01001,6.21 7.35999,9.60001 11.07,16.01001 18.27002,34.10001 25.22998,51.60001 0.92999,2.32998 1.84997,4.64001 2.78003,6.95001 9.17999,22.80002 19.83001,46.43002 40.08001,62.74002 18.81,15.16998 50.52997,22.47998 72.27002,6.15997 l 0.59998,0.79999 c -8.14002,6.10999 -18.60999,9.34003 -30.03003,9.34003 l 6e-5,-0.0301 z"
         style="fill:#29abe2;fill-opacity:1;fill-rule:nonzero;stroke:none"
         id="path3558"
         inkscape:connector-curvature="0" />
      <path
         d="m 869.40997,567.71997 c -15.70001,0 -31.70001,-5.94 -43.03997,-14.59003 -20.53998,-15.65002 -32.21003,-39.27996 -41.53003,-60.20001 -1.13001,-2.54001 -2.26001,-5.10998 -3.40003,-7.69 -7.22998,-16.44 -14.70001,-33.42999 -25.59003,-48.60001 -2.34997,-3.28 -4.80999,-6.39999 -7.32,-9.28 -21.71997,-24.95999 -57.29999,-42.33999 -95.18,-46.48999 -32.38,-3.54998 -61.46002,1.9 -83.17999,7.04999 -3.02002,0.72 -6.10998,1.48001 -9.42999,2.32999 -6.35999,1.64001 -12.71997,3.38 -18.85999,5.06 -21.53003,5.89999 -41.86999,11.47 -64.25,13.42001 -21.04998,1.81 -60.16,0.35001 -85.63,-29.73001 -2,-2.35001 -3.89999,-4.89002 -5.66,-7.53 -17.67002,-26.67001 -19.65,-62.48001 -19.59,-87.10001 0.05,-12.73001 0.51001,-25.39999 0.95001,-37.64999 0.9,-24.97 1.75,-48.56 -0.57001,-72.51001 -2.63,-27.39999 -9.5,-51.33 -20.41,-71.12 -6.03,-10.960002 -13.39001,-20.750003 -21.86002,-29.120006 -26.86999,-26.479999 -69.11999,-41.52 -115.82,-41.189998 -44.26,0.290001 -87.29,13.100002 -124.160007,25.079998 L 84.569916,56.909893 C 121.50992,44.899895 164.62991,32.059891 209.02991,31.779894 c 47.01999,-0.280001 89.47,14.809999 116.53,41.480001 8.54,8.430001 15.95001,18.309998 22.02999,29.349995 10.97001,19.91001 17.88001,43.97 20.53,71.5 2.32999,24.02001 1.48001,47.64 0.57999,72.65 -0.44,12.23999 -0.89999,24.89999 -0.95001,37.61999 -0.05,24.48999 1.89999,60.10001 19.42999,86.54999 1.73001,2.60999 3.60999,5.10999 5.59,7.42999 25.17999,29.73999 63.92999,31.18 84.78,29.38001 22.29,-1.94 42.58001,-7.5 64.07,-13.39002 6.15003,-1.69 12.51001,-3.42999 18.88001,-5.07 3.33002,-0.85001 6.41998,-1.62 9.45001,-2.32999 21.79999,-5.16 50.98999,-10.63001 83.52002,-7.07001 38.11999,4.17002 73.94,21.67999 95.82001,46.82999 2.53003,2.91 5.01001,6.04999 7.38,9.35 10.95001,15.25 18.44,32.29999 25.69,48.78 1.13001,2.57001 2.26001,5.14002 3.39002,7.68 9.28003,20.80999 20.88,44.29998 41.22998,59.80999 18.66998,14.23999 50.09003,21.03998 71.56,5.58002 l 0.58001,0.81 c -8.78003,6.32001 -19.17999,8.98999 -29.71002,8.98999 l 6e-5,0.0101 z"
         style="fill:#29abe2;fill-opacity:1;fill-rule:nonzero;stroke:none"
         id="path3560"
         inkscape:connector-curvature="0" />
      <path
         d="m 859.95001,565.94 c -15.28998,0 -30.81,-5.52002 -42.23999,-13.73999 -20.66998,-14.84997 -32.86999,-37.33001 -42.69,-57.23999 -1.39002,-2.81 -2.77002,-5.64999 -4.15002,-8.51001 -7.46998,-15.41 -15.20002,-31.33999 -25.91999,-45.72 -2.36999,-3.17999 -4.84002,-6.22 -7.34002,-9.04001 -21.81,-24.51001 -55.66999,-41.85 -92.90003,-47.57 -31.04999,-4.78 -58.92999,-1.37 -79.75,2.13 -2.84003,0.48001 -5.77002,1 -8.95001,1.59 -5.90003,1.1 -11.78003,2.29 -17.46002,3.44 -20.37,4.11999 -39.60999,8.01001 -60.75,8.42999 -24.28,0.42999 -58.01001,-4.94 -80.85001,-33.11999 -1.91,-2.35001 -3.73999,-4.87 -5.42999,-7.5 -16.62,-25.87 -19.70999,-59.31 -20.54001,-85.55002 -0.32999,-11.19 -0.39002,-22.32001 -0.45001,-33.09 -0.13001,-25.5 -0.26001,-49.58999 -3.76001,-73.83 -3.79001,-26.38001 -11.45999,-49.31 -22.81,-68.169998 -6.28,-10.449997 -13.79001,-19.790001 -22.32001,-27.75 -26.79001,-24.950001 -68.14,-39.209999 -113.58,-39.209999 -0.39999,0 -0.78999,0 -1.19,0 -43.58,0.239999 -86.15,12.349998 -122.640001,23.690002 l -0.300003,-0.959999 c 36.550004,-11.360001 79.210004,-23.49 122.930004,-23.73 0.4,0 0.80001,0 1.19001,0 45.69999,0 87.29,14.360001 114.26001,39.48 8.6,8.020004 16.17001,17.43 22.5,27.959999 11.42001,18.970005 19.13998,42.030005 22.94,68.540005 3.51001,24.30999 3.64001,48.43 3.76999,73.97 0.06,10.75999 0.11999,21.87999 0.45001,33.06001 0.82999,26.10999 3.89001,59.38 20.38,85.04001 1.67002,2.6 3.48002,5.08999 5.37,7.41 22.59,27.87 55.98999,33.20001 80.06,32.75 21.04001,-0.42001 40.23999,-4.29999 60.57,-8.41 5.69001,-1.15 11.57001,-2.34 17.46998,-3.44 3.19,-0.59 6.11999,-1.10999 8.96997,-1.59 20.89001,-3.51001 48.88,-6.92999 80.07,-2.13001 37.46003,5.76001 71.53998,23.21 93.5,47.89002 2.52002,2.84 5.01001,5.89999 7.40003,9.10001 10.78003,14.45999 18.52002,30.44 26.02002,45.88 1.38,2.85001 2.76001,5.69 4.15002,8.5 9.76001,19.80002 21.90003,42.16 42.38001,56.87003 18.98999,13.66998 49.42999,19.78003 70.85998,5.01001 l 0.57001,0.82 c -8.88001,6.12 -19.28003,8.71997 -29.78003,8.71997 l -0.01,0.02 z"
         style="fill:#29abe2;fill-opacity:1;fill-rule:nonzero;stroke:none"
         id="path3562"
         inkscape:connector-curvature="0" />
      <path
         d="m 850.65002,564 c -15.04998,0 -30.32,-5.09998 -41.59002,-12.72998 -20.82001,-14.06 -33.54999,-35.39002 -43.84003,-54.29001 -1.70001,-3.10998 -3.38,-6.26001 -5.07001,-9.42999 -7.65997,-14.35001 -15.58001,-29.17999 -26.08001,-42.73999 -2.39002,-3.09 -4.85999,-6.04001 -7.35999,-8.79001 -21.54999,-23.67001 -54.58002,-41.39999 -90.63,-48.64999 -29.62,-5.97001 -56.34998,-4.63001 -76.33002,-2.79999 -2.85999,0.26001 -5.67999,0.54999 -8.46997,0.83999 -5.28998,0.57001 -10.54999,1.21 -15.64002,1.82999 -19.34997,2.35001 -37.61999,4.57001 -57.66,3.42999 -32.75,-1.92001 -59.04999,-14.54998 -76.06,-36.5 -1.82,-2.33999 -3.57998,-4.85998 -5.20999,-7.47 -15.73999,-25.29001 -19.75,-58.17999 -21.48999,-84 -0.60998,-9.39 -1.06,-18.74 -1.48999,-27.78 -1.26001,-26.30999 -2.45999,-51.16 -7.29999,-75.89999 -4.94,-25.35001 -13.42001,-47.29 -25.20999,-65.21 -6.53,-9.940002 -14.20001,-18.809997 -22.79001,-26.370002 -26.98001,-23.690003 -68.03,-37.23 -112.73999,-37.23 -0.33,0 -0.64999,0 -0.97999,0 -42.90001,0.190001 -85.01,11.610001 -121.120006,22.290001 L 83.310005,51.54002 C 119.48,40.840019 161.67001,29.400021 204.71001,29.21002 c 45.33999,-0.19 87.02998,13.460001 114.39,37.479998 8.64999,7.620002 16.38,16.559997 22.95999,26.569999 11.85998,18.030003 20.39999,40.090003 25.35998,65.570003 4.85001,24.80999 6.04999,49.69 7.32001,76.04001 0.42999,9.03999 0.88001,18.38 1.48999,27.76001 1.73001,25.70001 5.70999,58.42999 21.34,83.52999 1.61999,2.57999 3.35,5.07001 5.14999,7.39002 21.26001,27.44 52.70001,34.79001 75.33002,36.11999 19.94,1.13001 38.17999,-1.07998 57.47998,-3.42001 5.09003,-0.61999 10.34997,-1.26001 15.65002,-1.82999 2.78998,-0.29998 5.62,-0.57998 8.47998,-0.85 20.04999,-1.84 46.87,-3.17999 76.62,2.81 36.25,7.29 69.47998,25.13998 91.16998,48.95999 2.52002,2.76999 5.01001,5.75 7.40997,8.85 10.54999,13.63001 18.5,28.5 26.16999,42.88001 1.69,3.17001 3.36999,6.32001 5.07,9.42999 10.23999,18.79001 22.89002,40.00998 43.52002,53.93997 18.84003,12.73999 48.98999,18.35999 70.15998,4.43 l 0.54999,0.84002 c -8.84003,5.81 -19.21003,8.28998 -29.68,8.28998 z"
         style="fill:#29abe2;fill-opacity:1;fill-rule:nonzero;stroke:none"
         id="path3564"
         inkscape:connector-curvature="0" />
      <path
         d="m 841.25,562.22998 c -15.01001,0 -29.96002,-4.97998 -40.84998,-11.88 -21.01001,-13.28003 -34.23999,-33.46003 -45,-51.33002 -2.07,-3.45001 -4.16998,-7.01999 -6.20001,-10.47 -7.78003,-13.26001 -15.82001,-26.95999 -26.03998,-39.65 -2.40997,-2.98999 -4.89001,-5.86999 -7.39001,-8.54998 -21.26001,-22.79999 -53.46002,-40.93 -88.34998,-49.73999 -27.84002,-7.03 -52.47998,-7.85001 -72.91003,-7.72001 -2.70001,0.02 -5.37,0.05 -7.98999,0.10001 -4.48999,0.09 -8.89002,0.22 -13.22998,0.35001 -18.53003,0.54998 -36.03,1.07 -55.14999,-1.70002 -31.13001,-4.58999 -55.11002,-18.01001 -71.26999,-39.88 -1.73999,-2.34 -3.42002,-4.85001 -4.98999,-7.45001 -14.73999,-24.48001 -19.60999,-55.41001 -22.43,-82.44001 -0.73999,-7.25999 -1.41,-14.5 -2.04998,-21.5 -2.53,-27.47999 -4.92002,-53.44 -11.32999,-78.92999 -6.07999,-24.31 -15.37,-45.25999 -27.61002,-62.259993 -6.78,-9.43 -14.60998,-17.839996 -23.25,-25 -27.17001,-22.419998 -67.92999,-35.25 -111.91,-35.25 -0.26,0 -0.51,0 -0.76,0 -42.22,0.14 -83.87,10.860001 -119.589991,20.89 l -0.269997,-0.959999 c 35.789998,-10.05 77.509998,-20.780001 119.860008,-20.930001 0.25,0 0.50999,0 0.77,0 44.21001,0 85.2,12.91 112.55001,35.48 8.70999,7.210003 16.58999,15.680004 23.42999,25.180004 12.32001,17.109999 21.66,38.169999 27.76999,62.599989 6.42001,25.57001 8.82001,51.56 11.35001,79.08 0.64001,7 1.30999,14.24001 2.04998,21.49001 2.81,26.92001 7.66001,57.70999 22.29001,82.03 1.54999,2.57001 3.22,5.04999 4.94,7.36999 16,21.65 39.75,34.93 70.61002,39.48999 19.04001,2.76001 36.5,2.25 54.97998,1.69001 4.34998,-0.13001 8.75,-0.26001 13.25,-0.35001 2.63001,-0.05 5.28998,-0.09 8,-0.10001 20.51001,-0.13 45.22003,0.69001 73.15997,7.75 35.07001,8.85001 67.45002,27.09 88.83997,50.03 2.51001,2.70001 5.01001,5.59 7.42999,8.60001 10.27002,12.73999 18.33002,26.48001 26.13001,39.76999 2.03003,3.45001 4.11999,7.01999 6.19,10.45999 10.69,17.78003 23.84997,37.84003 44.66998,51 18.10999,11.46997 47.57001,17.57001 69.46002,3.85998 l 0.53003,0.84998 c -9.05999,5.66998 -19.38,8.02002 -29.67999,8.02002 l -0.0101,6e-5 z"
         style="fill:#29abe2;fill-opacity:1;fill-rule:nonzero;stroke:none"
         id="path3566"
         inkscape:connector-curvature="0" />
      <path
         d="m 831.88,560.29999 c -14.73999,0 -29.40997,-4.53998 -40.13,-10.87 -19.09998,-11.23999 -32.26001,-27.46997 -46.15002,-48.38 -2.53998,-3.82999 -5.10999,-7.81 -7.59998,-11.67002 -7.81,-12.11999 -15.88,-24.64999 -25.72998,-36.38998 -2.44,-2.91 -4.92999,-5.70001 -7.40997,-8.29999 -28.65003,-29.98999 -66.22998,-44.72 -86.08002,-50.83001 -25.79999,-7.95002 -48.65003,-10.76999 -69.48999,-12.65 -2.53998,-0.23001 -5.04999,-0.44 -7.51001,-0.64001 -3.32001,-0.26001 -6.58002,-0.51001 -9.78998,-0.75 -18.06,-1.34 -35.11999,-2.62 -53.67999,-7.22 -29.45999,-7.39002 -51.20001,-21.54001 -66.47,-43.26001 -1.65,-2.34 -3.26001,-4.84 -4.76999,-7.42002 -14.42002,-24.79999 -19.63001,-54.75 -23.38001,-80.89 -0.66,-4.67 -1.29001,-9.3 -1.92001,-13.89 -3.98999,-29.16 -7.75,-56.69999 -16.04001,-83.3 -7.20999,-23.26 -17.31,-43.22 -30.01001,-59.309997 -7.03,-8.919998 -15.01001,-16.870003 -23.72,-23.620003 -27.76001,-21.459999 -67.19,-33.27 -111.07001,-33.27 -0.19,0 -0.36999,0 -0.55999,0 -41.54001,0.1 -82.73001,10.11 -118.070004,19.490001 L 82.040024,46.15995 c 35.410006,-9.400001 76.669996,-19.43 118.330006,-19.53 0.19,0 0.38,0 0.55999,0 44.10001,0 83.73999,11.879999 111.68,33.479997 8.76998,6.800003 16.80999,14.809998 23.88998,23.790001 12.78,16.190002 22.92999,36.259992 30.17999,59.640002 8.31,26.67999 12.07999,54.25999 16.07001,83.45999 0.63,4.59 1.26001,9.22 1.92001,13.89 3.73999,26.03999 8.92002,55.87999 23.25,80.52 1.5,2.56 3.07999,5.03 4.72,7.35001 15.13001,21.51999 36.68,35.54001 65.9,42.85998 18.48001,4.57999 35.50003,5.85001 53.50998,7.19001 3.21997,0.23999 6.47998,0.48001 9.79999,0.75 2.46002,0.20001 4.96997,0.41 7.51001,0.64001 20.90002,1.88001 43.80999,4.70999 69.70001,12.69 19.94,6.14002 57.70001,20.93 86.5,51.09 2.5,2.62 5,5.42001 7.46002,8.35001 9.89001,11.79 17.97998,24.35 25.79999,36.48999 2.47998,3.85 5.04999,7.83999 7.59002,11.66 13.81,20.79001 26.89002,36.92001 45.82001,48.06998 17.96002,10.59997 47.14002,16.15002 68.77002,3.28003 l 0.51001,0.85998 c -9.03998,5.38001 -19.36999,7.59003 -29.65997,7.59003 l 0.0299,0.02 z"
         style="fill:#29abe2;fill-opacity:1;fill-rule:nonzero;stroke:none"
         id="path3568"
         inkscape:connector-curvature="0" />
      <path
         d="m 822.28998,558.51001 c -14.23999,0 -28.39002,-4.09003 -39.20001,-10.01001 -20.46997,-11.16998 -34.83002,-28.42999 -47.29999,-45.41998 -3.13001,-4.26001 -6.15003,-8.54001 -9.34998,-13.07001 -7.71002,-10.92001 -15.69,-22.20999 -25.07,-32.94 -2.46003,-2.82001 -4.96003,-5.53 -7.43,-8.06 -28.09997,-28.70001 -64.57,-44.84 -83.79999,-51.91 -24.25,-8.92002 -45.94,-13.57999 -66.08001,-17.57999 -2.39002,-0.47 -4.72998,-0.92999 -7.03003,-1.39002 L 532.62,377.28 c -19.07001,-3.67999 -35.54001,-6.85999 -54.16001,-13.73001 -17.45999,-6.5 -42.83999,-18.41001 -61.67001,-46.63001 -1.57001,-2.32998 -3.09,-4.82 -4.54001,-7.39001 -13.31,-23.73999 -19.31,-52.20999 -24.32001,-79.33 l -0.81,-4.44001 c -5.72,-31.55 -11.10998,-61.34999 -21.73001,-89.5 -8.33999,-22.19 -19.23999,-41.16 -32.41998,-56.359997 -7.28,-8.410003 -15.41,-15.900001 -24.17999,-22.25 -27.95999,-20.18 -67.12,-31.290001 -110.29001,-31.290001 h -0.3 c -40.84999,0.05 -81.58,9.369999 -116.550007,18.099999 L 81.409966,43.48996 c 35.029994,-8.739998 75.829994,-18.08 116.790004,-18.129999 43.52,-0.04 82.97999,11.129999 111.16999,31.479997 8.82999,6.400002 17.03,13.940003 24.35001,22.409996 13.25,15.300003 24.22,34.359996 32.60001,56.669996 10.64999,28.24001 16.04998,58.08 21.78,89.68 l 0.80999,4.44 c 4.98999,27.04001 10.97,55.41 24.20999,79.01999 1.44001,2.54998 2.95002,5.01001 4.5,7.32998 18.67002,27.98001 43.86002,39.79001 61.19001,46.25 18.54001,6.84 34.97,10.01001 53.99997,13.69001 l 4.40997,0.85 c 2.29999,0.45001 4.64001,0.91001 7.03003,1.39002 20.17999,4.01001 41.91998,8.67999 66.22998,17.61999 19.31,7.10001 55.92999,23.31 84.16998,52.15 2.47998,2.54 5,5.26001 7.46997,8.1 9.40998,10.76999 17.40003,22.07999 25.13001,33.01999 3.19,4.51999 6.21002,8.79001 9.34002,13.04999 12.40003,16.89999 26.66999,34.06003 46.97004,45.13998 18.40002,10.07001 46.58001,14.81 68.07,2.70001 l 0.48999,0.87 c -9.16998,5.15997 -19.53003,7.31 -29.84002,7.31 l 0.0101,-0.0199 z"
         style="fill:#29abe2;fill-opacity:1;fill-rule:nonzero;stroke:none"
         id="path3570"
         inkscape:connector-curvature="0" />
      <path
         d="m 812.37,556.71002 c -12.63001,0 -25.89002,-3.06 -37.93,-9.13 -20.77002,-10.44001 -35.56,-26.58002 -48.45001,-42.47 -3.86999,-4.76999 -7.59998,-9.60001 -11.54999,-14.71 -7.46997,-9.66 -15.19,-19.64001 -23.95001,-29.23999 -2.47998,-2.73001 -4.98999,-5.35998 -7.46002,-7.80999 -26.04999,-25.92002 -58.72003,-43.13001 -81.52997,-53 -21.32001,-9.23001 -40.21997,-15.29999 -56.89001,-20.65 -1.96003,-0.63 -3.89002,-1.25 -5.78998,-1.85998 -2.22998,-0.72 -4.40998,-1.43 -6.53998,-2.13001 -19.17999,-6.23999 -35.29999,-11.76999 -53.64999,-21.20001 -17.5,-9.06 -39.78,-22.94 -56.87,-49.98999 -1.48001,-2.32999 -2.92999,-4.81 -4.32001,-7.37 -13.04998,-24.17001 -19.51001,-52.52 -25.20999,-77.54 l -0.05,-0.24001 c -7.45001,-33.18001 -14.64001,-62.90001 -27.11999,-90.7 -9.44,-21.11 -21.16001,-39.079998 -34.82001,-53.41 -7.51999,-7.900001 -15.81,-14.919998 -24.64999,-20.879997 -28.16001,-18.900001 -67.06,-29.309999 -109.54001,-29.309999 -40.16,0 -80.43,8.62 -115.03,16.699998 l -0.230003,-0.970001 c 34.650003,-8.09 74.999993,-16.719999 115.260003,-16.719999 42.67999,0 81.78,10.469999 110.1,29.480001 8.9,6 17.25,13.07 24.81,21.020005 13.73999,14.410003 25.51999,32.479992 35.01001,53.700002 12.51001,27.88 19.70999,57.66 27.17999,90.88999 l 0.05,0.24001 c 5.69001,24.95 12.13001,53.23 25.11002,77.28001 1.38,2.54001 2.82001,5 4.29001,7.31 16.95999,26.85001 39.08999,40.63001 56.48001,49.64002 18.28,9.39001 34.36999,14.89999 53.5,21.13 2.14001,0.70001 4.31,1.41 6.53998,2.13001 1.89001,0.60998 3.82,1.23001 5.78003,1.85998 16.69,5.35999 35.60998,11.42999 56.97998,20.69 22.89001,9.91001 55.67999,27.18 81.84002,53.20999 2.47998,2.47001 5,5.10999 7.48999,7.85001 8.78998,9.63001 16.52002,19.63001 24,29.29999 3.95002,5.1 7.66999,9.92001 11.53998,14.69 12.82001,15.79999 27.52002,31.84998 48.12,42.21002 22.26001,11.21997 48.70001,12.04999 67.38,2.12 l 0.46997,0.88 c -8.82001,4.69001 -19.34997,7.02002 -30.35998,7.02002 l 0.01,-0.0201 z"
         style="fill:#29abe2;fill-opacity:1;fill-rule:nonzero;stroke:none"
         id="path3572"
         inkscape:connector-curvature="0" />
      <path
         d="m 802.82001,554.81 c -12.34003,0 -25.27002,-2.72998 -37.02997,-8.15003 -21.16998,-9.72998 -36.95001,-25.42999 -49.59998,-39.51001 -4.83001,-5.36999 -9.46997,-10.85998 -14.38,-16.67999 -7.01001,-8.29001 -14.25,-16.86999 -22.21002,-25.20999 -2.56,-2.69 -5.01001,-5.17001 -7.47998,-7.57001 -20.21003,-19.58999 -46.88001,-37.79001 -79.26001,-54.1 -15.16999,-7.65 -29.15998,-13.9 -41.5,-19.41001 -6.28003,-2.81 -12.21997,-5.45999 -17.77002,-8.04999 -2.07001,-0.97 -4.09003,-1.92001 -6.06,-2.88 -19.57999,-9.38001 -33.70001,-17.44 -48.73999,-27.81 -17.97,-12.48001 -36.70999,-27.58999 -52.06,-53.33999 -1.39001,-2.32001 -2.76999,-4.79001 -4.1,-7.34 -11.53,-22.23001 -18.48002,-47.82001 -24.62,-70.39999 -0.53,-1.96001 -1.06,-3.9 -1.57999,-5.82001 -9.1,-33.69 -17.98001,-61.45999 -31.69,-87.46 -10.51999,-20.01 -23.04999,-36.989999 -37.23001,-50.470002 -7.76001,-7.380001 -16.20999,-13.940003 -25.11999,-19.5 -28.28,-17.580002 -66.81,-27.280001 -108.5,-27.33 h -0.32001 c -39.35001,0 -79.05001,7.899999 -113.190005,15.300001 l -0.209999,-0.98 C 114.36003,30.679979 154.13003,22.77998 193.57004,22.77998 h 0.32001 c 41.86999,0.05 80.58999,9.810001 109.02999,27.479999 8.97001,5.59 17.47001,12.200001 25.28,19.629998 14.26001,13.550003 26.85001,30.620003 37.42002,50.730003 13.76001,26.08 22.64999,53.91 31.76999,87.66 0.51998,1.92 1.04998,3.86 1.57998,5.82001 6.12,22.53 13.06,48.06001 24.54001,70.2 1.32001,2.53 2.69,4.98001 4.07001,7.29001 15.25,25.58999 33.89999,40.61999 51.76999,53.04 14.98999,10.34 29.07,18.38001 48.59997,27.73002 1.96997,0.95001 3.98999,1.91 6.04999,2.86999 5.53998,2.59 11.46997,5.23999 17.75,8.04001 12.34998,5.51999 26.34998,11.76999 41.53998,19.42999 32.47003,16.35001 59.22003,34.60999 79.51001,54.26999 2.47998,2.41 4.94,4.89002 7.51001,7.60001 7.96997,8.36999 15.22998,16.95999 22.25,25.26001 4.90997,5.80999 9.54999,11.29998 14.35998,16.64999 C 729.5,520.47998 745.19,536.10004 766.19,545.75 c 22.03998,10.15997 48.22003,10.77002 66.68,1.54999 l 0.45001,0.89001 c -8.84998,4.41999 -19.45001,6.62 -30.52002,6.62 h 0.02 z"
         style="fill:#29abe2;fill-opacity:1;fill-rule:nonzero;stroke:none"
         id="path3574"
         inkscape:connector-curvature="0" />
      <path
         d="m 793.15002,553.02002 c -11.92999,0 -24.40002,-2.44 -36.01001,-7.28998 -21.57,-8.98999 -37.76001,-23.52002 -50.75,-36.56 -6.07,-6.07998 -11.90002,-12.41 -18.08001,-19.11999 -6.26001,-6.79001 -12.71997,-13.81 -19.60999,-20.72 -2.59002,-2.60999 -5.03998,-5 -7.51001,-7.32001 -19.40997,-18.29999 -44.59997,-36.36002 -76.98999,-55.19 -7.96002,-4.63001 -15.41998,-8.85001 -22.64001,-12.94 -12.62,-7.14002 -23.52002,-13.31 -33.22003,-19.47001 -1.91999,-1.20999 -3.78998,-2.42999 -5.58002,-3.61999 -15.42001,-10.17999 -28.12,-20.14999 -43.82001,-34.41998 -13.42001,-12.26999 -31.79001,-29.07999 -47.26001,-56.69001 -1.31,-2.32 -2.60998,-4.78 -3.88,-7.30999 -9.93,-19.98 -16.72,-41.57001 -23.28,-62.46 -1.29999,-4.13999 -2.57999,-8.22 -3.85999,-12.19999 -11.67001,-36.64 -22.51001,-61.81999 -36.26999,-84.22 -11.57998,-18.900005 -24.91,-34.890003 -39.63,-47.520008 -7.98999,-6.869999 -16.60001,-12.970001 -25.57999,-18.129997 -36.39999,-20.83 -78.53,-25.280001 -107.45999,-25.35 -0.25,0 -0.5,0 -0.75,0 -38.47,0 -76.04,6.87 -111.239997,13.899999 l -0.199997,-0.979999 c 35.480004,-7.09 73.349994,-14.020001 112.189994,-13.92 29.05,0.07 71.37,4.539999 107.95001,25.479997 9.04001,5.189999 17.70002,11.330002 25.73999,18.239998 14.79999,12.699997 28.20002,28.760002 39.83002,47.75 13.79999,22.46999 24.67999,47.71999 36.37,84.43999 1.27999,3.99001 2.55999,8.07001 3.86999,12.21001 6.54999,20.85001 13.32001,42.40001 23.22,62.31001 1.26001,2.51001 2.54999,4.96 3.85001,7.26999 15.39001,27.48001 33.70001,44.22 47.06,56.44001 15.66,14.23001 28.32,24.17999 43.70001,34.33001 1.78998,1.19001 3.65997,2.4 5.57,3.60999 9.68,6.14001 20.57001,12.29999 33.18,19.44 7.21997,4.09 14.69,8.31 22.65002,12.94 32.46002,18.87 57.70001,36.97 77.16998,55.33002 2.46998,2.32999 4.93,4.73001 7.53003,7.35001 6.89002,6.92001 13.37,13.95001 19.63001,20.75 6.16998,6.69 11.98999,13.01999 18.04999,19.08999 12.91998,12.96002 29.01001,27.40998 50.42999,36.34003 22.15997,9.27002 47.45001,9.64001 65.98999,0.96997 l 0.41998,0.90997 c -9.05999,4.22998 -19.69,6.34003 -30.78998,6.34003 l 0.01,-0.0101 z"
         style="fill:#29abe2;fill-opacity:1;fill-rule:nonzero;stroke:none"
         id="path3576"
         inkscape:connector-curvature="0" />
      <path
         d="m 783.40002,551.23999 c -11.5,0 -23.48999,-2.15002 -34.90997,-6.42999 -22.16998,-8.28998 -39.38,-22.31 -51.90002,-33.60001 -7.73999,-6.97 -15.15998,-14.39001 -23.02002,-22.25 -5.08002,-5.07999 -10.33002,-10.32001 -15.75,-15.53 -2.64002,-2.54001 -5.10999,-4.85998 -7.53003,-7.07998 -23.85999,-21.87 -51.08002,-40.51999 -74.72003,-56.29001 -19.63001,-13.10001 -38.16999,-25.47 -52.45002,-37.35999 -1.73999,-1.45001 -3.46002,-2.92001 -5.09997,-4.36999 -15.38001,-13.48999 -27.17999,-27.10999 -38.9,-41.04001 l -2.6,-3.10001 c -11.87,-14.14001 -26.65,-31.73001 -39.85999,-56.92999 -1.22,-2.31 -2.44,-4.76001 -3.64999,-7.28 -8.19,-17.22 -14.66,-35.5 -20.91,-53.17999 -2.45002,-6.94 -4.76999,-13.49001 -7.17002,-19.92 -12.32998,-33.39 -25.31,-59.11999 -40.85,-80.98 -12.60001,-17.780002 -26.75,-32.780002 -42.04001,-44.570003 -8.22,-6.349998 -16.98001,-11.989998 -26.04999,-16.75 -28.91,-15.139999 -65.70999,-23.219999 -106.42,-23.370001 -37.97999,-0.16 -75.41,6.100001 -110.47,12.499998 l -0.18,-0.979999 c 35.1,-6.41 72.58001,-12.680001 110.65,-12.520001 40.87,0.15 77.83,8.270001 106.87999,23.489998 9.12,4.790001 17.92999,10.459999 26.20001,16.849999 15.37,11.86 29.57999,26.919998 42.23999,44.779999 15.59,21.93 28.60001,47.73 40.97,81.21 2.4,6.44 4.72001,13 7.18,19.94 6.25,17.64999 12.70001,35.91 20.86999,53.07999 1.20001,2.51999 2.43,4.95001 3.64002,7.25 13.17001,25.10998 27.89999,42.64999 39.73999,56.75 l 2.6,3.1 c 11.70002,13.89002 23.47,27.48001 38.79999,40.93 1.63001,1.44 3.34003,2.91 5.08002,4.35 14.23999,11.85001 32.75,24.20999 52.35998,37.29001 23.66999,15.79001 50.93,34.45999 74.84003,56.38001 2.42999,2.23001 4.90003,4.54998 7.54999,7.08999 5.42999,5.20999 10.69,10.45999 15.77002,15.54001 7.84997,7.84 15.26001,15.25 22.97998,22.20999 12.45001,11.22998 29.57001,25.16999 51.58002,33.40998 22.26001,8.34997 46.66998,8.5 65.29998,0.39001 l 0.40003,0.91998 c -9.28998,4.03998 -19.98999,6.06 -31.14002,6.06 l -0.01,0.01 z"
         style="fill:#29abe2;fill-opacity:1;fill-rule:nonzero;stroke:none"
         id="path3578"
         inkscape:connector-curvature="0" />
      <path
         d="m 773.48999,549.37 c -11.11999,0 -22.65002,-1.83002 -33.65997,-5.49 -17.71002,-5.86999 -34.07001,-15.32 -53.04999,-30.64001 -10.06,-8.11999 -19.66998,-17.03 -29.84998,-26.47 -3.28997,-3.04999 -6.61999,-6.14002 -10.02002,-9.25 -2.76001,-2.53 -5.22998,-4.76999 -7.55999,-6.84 -19.66999,-17.51001 -41.39002,-33.91 -60.56,-48.38 -4.07001,-3.07001 -8.03998,-6.07001 -11.89002,-9 -23.08001,-17.59 -37.75,-30.23999 -49.03002,-42.31 C 516.29999,369.31 514.75,367.59 513.25,365.87 500.51999,351.32999 491.35999,337.07001 480.76999,320.56 l -1.5,-2.34 c -1.98001,-3.09 -4.04999,-6.28 -6.20999,-9.57999 -9.70001,-14.86999 -20.69,-31.72 -31.47,-53.79 -1.13001,-2.29 -2.28,-4.74001 -3.43,-7.26 -6.19,-13.63 -11.70999,-27.86 -17.04,-41.61 -4.07001,-10.47999 -7.91001,-20.38 -11.98002,-29.92 -13.11999,-30.99 -27.98001,-56.41999 -45.42001,-77.730001 -13.57999,-16.650001 -28.54001,-30.650001 -44.44,-41.619998 -8.44,-5.829998 -17.35999,-11 -26.51999,-15.380002 -28.98999,-13.799999 -65.42999,-21.19 -105.38001,-21.389999 -37.27999,-0.200001 -74.25,5.389999 -108.949993,11.110001 l -0.160003,-0.99 c 34.740006,-5.73 71.800006,-11.31 109.120006,-11.120001 40.09,0.200001 76.68,7.630001 105.80002,21.489998 9.20999,4.400001 18.17002,9.599998 26.66001,15.459999 15.98001,11.029999 31.01001,25.090004 44.64999,41.810005 17.5,21.389998 32.41,46.899998 45.57001,77.980008 4.07998,9.56 7.92001,19.47 11.98999,29.95 5.32998,13.75 10.83999,27.96001 17.01999,41.56 1.14999,2.50999 2.29998,4.94 3.42001,7.22999 10.76001,22.01001 21.73001,38.84 31.41,53.68 2.16001,3.30999 4.23001,6.48999 6.21,9.58999 l 1.5,2.34 c 10.57998,16.48001 19.70999,30.70001 32.39001,45.19 1.48999,1.70999 3.03003,3.42001 4.59998,5.09 11.23999,12.03 25.86999,24.64999 48.90002,42.20001 3.84003,2.92999 7.82001,5.92999 11.88,9 19.18,14.48001 40.91999,30.89999 60.62,48.44 2.33002,2.07001 4.79999,4.31 7.57001,6.84 3.39001,3.1 6.71997,6.19 10.02002,9.25 10.16998,9.42999 19.77002,18.32999 29.79998,26.43002 18.87,15.23999 35.14002,24.64002 52.72998,30.46997 22,7.32001 46.15003,7.25 64.60999,-0.17999 l 0.37,0.92999 c -9.41999,3.78998 -20.31,5.69 -31.64002,5.69 l 0.02,-0.01 z"
         style="fill:#29abe2;fill-opacity:1;fill-rule:nonzero;stroke:none"
         id="path3580"
         inkscape:connector-curvature="0" />
      <path
         d="m 763.42999,547.59003 c -10.59997,0 -21.57,-1.53998 -32.25,-4.64002 -17.94,-5.17999 -35.15997,-13.97998 -54.19,-27.69 C 663.56,505.59 650.79999,494.47 637.27997,482.69 l -1.25,-1.08999 c -2.5,-2.18 -5.03003,-4.38001 -7.58002,-6.59 -12.06,-10.41 -24.56,-20.64999 -36.65002,-30.54999 -11.90998,-9.75 -23.15998,-18.95999 -33.52002,-27.94 -20.41999,-17.70001 -34.90998,-32.72 -45.59998,-47.26999 -1.42001,-1.92999 -2.81,-3.89999 -4.14001,-5.85998 -10.29999,-15.17002 -17.66001,-30.5 -25.44001,-46.72001 -1.19,-2.48999 -2.39999,-5 -3.63,-7.54 -3.37,-6.98999 -7.10999,-14.32999 -11.07999,-22.10001 -6.63,-12.97 -14.14001,-27.67001 -21.80999,-44.61 -1.03,-2.27001 -2.07999,-4.63001 -3.21,-7.23 -3.67001,-8.5 -7.26001,-17.22999 -10.73999,-25.67999 -6.14001,-14.94 -12.48999,-30.39 -19.22,-44.3 -14.08999,-29.29 -30.44,-53.66001 -49.98999,-74.490001 -14.51999,-15.510002 -30.29001,-28.52 -46.85,-38.669998 -8.65,-5.310001 -17.73001,-10.02 -26.98999,-14 -29.04999,-12.450001 -65.13001,-19.16 -104.34,-19.41 -36.48,-0.229999 -73.08,4.67 -107.430001,9.709999 l -0.150001,-0.989999 c 34.390002,-5.039999 71.050002,-9.92 107.580002,-9.72 39.34,0.24 75.55002,6.98 104.73001,19.490002 9.29999,4 18.42001,8.739998 27.12,14.07 16.64001,10.2 32.48001,23.270004 47.05999,38.839996 19.62,20.910001 36.03,45.360001 50.16999,74.739991 6.73999,13.92999 13.1,29.39999 19.25,44.35001 3.47,8.44999 7.05999,17.17999 10.73001,25.66999 1.13,2.59 2.17001,4.95 3.20001,7.21001 7.67001,16.92001 15.17001,31.61002 21.79001,44.57001 3.97,7.76999 7.72,15.11999 11.08999,22.11999 1.23002,2.54001 2.44001,5.06 3.63001,7.54001 7.76999,16.19 15.10001,31.48001 25.36999,46.59 1.32001,1.95001 2.71,3.92001 4.11002,5.82998 10.65002,14.48999 25.09003,29.46 45.45001,47.10999 10.34998,8.95999 21.59003,18.17001 33.5,27.92001 12.09998,9.9 24.60999,20.13999 36.66999,30.57001 2.54998,2.20999 5.08001,4.41 7.58001,6.59 l 1.25,1.08999 c 13.5,11.76001 26.25,22.87 39.63001,32.50998 18.94,13.64002 36.05999,22.39002 53.89001,27.53998 22.03998,6.39001 45.34003,6.10999 63.91998,-0.76001 l 0.34998,0.94 c -9.77002,3.60999 -20.82001,5.41999 -32.29999,5.41999 z"
         style="fill:#29abe2;fill-opacity:1;fill-rule:nonzero;stroke:none"
         id="path3582"
         inkscape:connector-curvature="0" />
      <path
         d="m 753.04999,545.76001 c -10.07001,0 -20.42999,-1.23999 -30.51001,-3.72998 -18.46002,-4.54999 -36.04999,-12.40997 -55.34003,-24.72998 -15.01001,-9.59 -29.08002,-20.85001 -42.04999,-31.60001 -2.52002,-2.08999 -5.05999,-4.20999 -7.60998,-6.35 l -3.65998,-3.06 c -22.30999,-18.67001 -45.39001,-37.98001 -64.23999,-56.53 -18.61999,-18.32999 -32.41998,-35.41 -42.16998,-52.23001 -1.26001,-2.17001 -2.48999,-4.39002 -3.64999,-6.60999 -8.63001,-16.38 -14.35001,-32.77999 -20.4,-50.16 -1.23001,-3.53 -2.47,-7.10001 -3.75,-10.70999 -6.41,-18.13001 -14.58999,-37.70001 -24.07,-60.36 l -4.04999,-9.69 c -1,-2.38001 -1.98999,-4.78 -2.98999,-7.2 -9.54999,-23.29001 -19.42001,-47.38001 -30.89002,-68.42 -15.07998,-27.81 -32.92999,-51.11999 -54.57,-71.260001 -15.41001,-14.370003 -31.98001,-26.39 -49.26001,-35.720002 -8.85001,-4.790001 -18.09,-9.040001 -27.45999,-12.630001 -29.5,-11.27 -64.25,-17.129999 -103.30001,-17.43 -35.65001,-0.26 -71.89,3.959999 -105.910001,8.310001 l -0.129998,-0.989999 c 34.060009,-4.360001 70.289999,-8.58 106.049999,-8.32 39.17,0.299999 74.04001,6.18 103.64999,17.49 9.41,3.61 18.69,7.869999 27.57999,12.68 17.35,9.380001 33.98999,21.450004 49.47,35.870003 21.72,20.219999 39.63,43.609999 54.76001,71.509999 11.48999,21.08999 21.38,45.19999 30.94,68.51998 1,2.42 1.98999,4.81 2.98999,7.19001 l 4.04999,9.69 c 9.48999,22.67001 17.67999,42.25 24.09,60.41 1.27999,3.60999 2.52999,7.18 3.76,10.72 6.04001,17.32999 11.74,33.71 20.34,50.01999 1.16,2.20999 2.38001,4.42002 3.63001,6.57999 9.70999,16.73999 23.44998,33.75 41.99997,52.01999 18.83001,18.51999 41.88,37.81 64.17999,56.47 l 3.65997,3.06 c 2.54999,2.13 5.08002,4.25 7.59998,6.33999 12.94,10.72 26.98999,21.97 41.95001,31.53 19.20001,12.27002 36.69,20.08002 55.03998,24.60999 21.71997,5.36999 44.77002,4.88 63.23999,-1.34003 l 0.32,0.95001 c -10.05999,3.39002 -21.46997,5.09998 -33.27996,5.09998 l -0.01,6e-5 z"
         style="fill:#29abe2;fill-opacity:1;fill-rule:nonzero;stroke:none"
         id="path3584"
         inkscape:connector-curvature="0" />
      <path
         d="m 742.38,544.01001 c -9.38,0 -18.98999,-0.96997 -28.48999,-2.90997 C 695.10999,537.27002 676.63,530.15002 657.40002,519.32001 643.99005,511.78 630.28003,502.39001 614.25,489.78 c -2.41998,-1.9 -4.91998,-3.9 -7.63,-6.10001 -27.60999,-22.38 -49.08002,-42.23001 -65.63001,-60.69 -17.09003,-19.07001 -30.11999,-38.31 -38.73001,-57.17999 -1.10001,-2.4 -2.16,-4.88001 -3.17001,-7.35999 C 491.78998,340.5 487.48996,322.59003 482.92996,303.63 c -1.01001,-4.19 -2.01999,-8.39999 -3.07001,-12.64999 -5.75,-23.26999 -13.39001,-47.28 -23.36001,-73.39 -0.91,-2.38 -1.82999,-4.77 -2.76999,-7.17 -10.51001,-27.11 -20.92001,-48.97999 -31.82999,-66.86 -15.86999,-26.12 -35.76999,-49.009992 -59.14001,-68.019994 -16.25,-13.239998 -33.64002,-24.27 -51.66998,-32.77 -9.03,-4.259999 -18.42002,-8.05 -27.93,-11.25 -29.47999,-9.9 -63.88,-15.100001 -102.26001,-15.439999 -34.83999,-0.32 -69.26999,3.09 -104.389996,6.91 l -0.110001,-0.99 c 35.160007,-3.83 69.609997,-7.24 104.510007,-6.92 38.48,0.35 72.98999,5.56 102.57001,15.5 9.54001,3.209999 18.97,7.020001 28.03,11.299999 18.11002,8.540001 35.56,19.610001 51.86999,32.899998 23.46,19.089996 43.43,42.059996 59.36002,68.279996 10.94,17.93001 21.38001,39.86 31.91,67.02001 0.94001,2.39999 1.85999,4.8 2.76999,7.17999 9.98999,26.14999 17.64002,50.20001 23.4,73.51001 1.05999,4.25 2.07,8.47 3.07998,12.66 4.54999,18.92002 8.84,36.79999 16.10999,54.68 1,2.47 2.06,4.92999 3.14999,7.32 8.57001,18.78 21.54001,37.93 38.56998,56.93 16.51001,18.42001 37.94,38.23999 65.51001,60.57998 2.71002,2.20001 5.21002,4.19 7.61999,6.09 15.98999,12.57999 29.65998,21.92999 43.02002,29.44998 19.14002,10.77002 37.52002,17.85999 56.20002,21.66998 21.66998,4.43 43.89001,3.75 62.54998,-1.91998 l 0.28998,0.96002 c -10.61999,3.22998 -22.39001,4.84998 -34.54999,4.85999 l 0.0101,-0.04 z"
         style="fill:#29abe2;fill-opacity:1;fill-rule:nonzero;stroke:none"
         id="path3586"
         inkscape:connector-curvature="0" />
      <path
         d="m 731.17999,542.28998 c -8.52002,0 -17.21997,-0.70001 -25.94,-2.12 -19.40997,-3.13 -38.26001,-9.28998 -57.63,-18.83001 -14.57001,-7.16999 -29.03998,-16.15 -44.23999,-27.47001 -2.52002,-1.88 -5.09998,-3.85 -7.65998,-5.85998 -24.92999,-19.54001 -46.84002,-40.89999 -63.34997,-61.79001 -15.93,-20.16 -27.79999,-41.07001 -35.29001,-62.13 -0.92999,-2.63001 -1.84,-5.35999 -2.67999,-8.10001 -6.10999,-19.82001 -9.07999,-39.54001 -12.23002,-60.42001 -0.67999,-4.53 -1.36999,-9.09 -2.08999,-13.66001 -4.53,-28.79001 -10.44,-53.17 -18.60001,-76.73999 -0.82001,-2.38 -1.67001,-4.75999 -2.54001,-7.14 -8.94,-24.5 -19.97,-46.47 -32.76001,-65.3 -16.91,-24.96 -38.35,-46.759995 -63.72,-64.790001 -17.04001,-12.130001 -35.23999,-22.16 -54.08001,-29.82 -9.19001,-3.740001 -18.74,-7.059999 -28.39002,-9.880001 -29.38,-8.540001 -63.44,-13.06 -101.22,-13.46 -33.91,-0.359999 -68.01,2.400001 -102.870003,5.51 l -0.09,-1 c 34.890003,-3.110001 69.020003,-5.87 102.970013,-5.520001 37.86999,0.4 72.01999,4.940001 101.48999,13.5 9.69,2.82 19.26999,6.16 28.48999,9.91 18.91,7.689999 37.17001,17.77 54.28,29.940002 25.45999,18.099999 46.98001,39.980001 63.95999,65.039991 12.84,18.9 23.89999,40.95 32.86999,65.51999 0.88001,2.39 1.72001,4.78 2.54999,7.16001 8.18,23.61999 14.10999,48.05999 18.65,76.91 0.72,4.57999 1.41,9.13 2.08999,13.67001 3.14002,20.84 6.10999,40.53 12.19001,60.28 0.83999,2.73001 1.73999,5.45001 2.67001,8.06 7.45001,20.95999 19.27002,41.76001 35.13,61.84 16.46003,20.82998 38.31,42.13998 63.18,61.63 2.54998,2 5.11999,3.97 7.64001,5.84 15.15003,11.28 29.57001,20.23999 44.09003,27.38 19.28998,9.48999 38.03998,15.62 57.34997,18.73999 21.53998,3.48999 42.93,2.62 61.85999,-2.5 l 0.26001,0.96002 c -11.40003,3.09003 -23.67999,4.64002 -36.34003,4.64002 z"
         style="fill:#29abe2;fill-opacity:1;fill-rule:nonzero;stroke:none"
         id="path3588"
         inkscape:connector-curvature="0" />
      <path
         d="m 718.88,540.57001 c -7.39001,0 -14.84997,-0.44001 -22.28997,-1.33002 -19.78998,-2.35999 -39.57001,-7.70001 -58.77997,-15.86999 -15.5,-6.59003 -30.75,-15.14002 -45.34003,-25.41001 -2.54999,-1.79001 -5.13,-3.67999 -7.67999,-5.60998 -23.88001,-18.07001 -45,-39.82001 -61.07001,-62.9 -14.83999,-21.32001 -25.54999,-43.88 -31.83999,-67.07001 -0.78,-2.86999 -1.51999,-5.83999 -2.20002,-8.83999 -4.97,-21.95999 -6.67999,-44.78 -8.33999,-66.85001 -0.35001,-4.60998 -0.69001,-9.22 -1.07001,-13.83999 -1.92001,-23.75 -5.06,-51.83001 -13.85001,-80.09 -0.75,-2.41 -1.53,-4.8 -2.32,-7.11 C 456.17999,162.51001 444.84,141.07001 430.41,121.91 412.42001,98 389.44,77.290009 362.12,60.360004 344.32001,49.330006 325.32001,40.280006 305.63,33.490005 c -9.32998,-3.219999 -19.04,-6.079999 -28.85998,-8.5 -29.59,-7.27 -62.36,-11.02 -100.19,-11.479999 -32.85001,-0.39 -65.33,1.63 -101.360004,4.110001 l -0.07,-1 c 36.040004,-2.49 68.560004,-4.510001 101.440014,-4.12 37.89999,0.45 70.75,4.22 100.41,11.509999 9.85999,2.42 19.60001,5.290001 28.95001,8.52 19.76001,6.82 38.82999,15.900002 56.69001,26.970002 27.42999,17 50.48999,37.790001 68.55999,61.799992 14.5,19.24001 25.88999,40.78 33.84,64.02001 0.79999,2.32 1.57999,4.72 2.32999,7.14 8.80999,28.35 11.97,56.50999 13.89001,80.31001 0.38001,4.61999 0.72,9.23999 1.07001,13.85001 1.64999,22.02999 3.35998,44.82 8.32,66.69998 0.68,2.98999 1.41001,5.95001 2.19001,8.79999 6.26001,23.07998 16.92999,45.54 31.69998,66.76 16.01001,23 37.04999,44.66999 60.85998,62.66999 2.53998,1.92001 5.12,3.79999 7.65003,5.58999 14.53003,10.23002 29.71997,18.75003 45.15002,25.31003 19.13001,8.13001 38.81,13.45001 58.51001,15.79999 20.96997,2.51001 42.12,1.44 61.18,-3.08002 l 0.22998,0.96997 c -12.40003,2.94001 -25.69001,4.43 -39.23999,4.43 z"
         style="fill:#29abe2;fill-opacity:1;fill-rule:nonzero;stroke:none"
         id="path3590"
         inkscape:connector-curvature="0" />
      <path
         d="m 704.87,539.03003 c -43.51001,0 -86.78003,-12.75 -123.28003,-36.98999 -48.81,-32.39999 -83.4,-83.94 -94.9,-141.38001 -5.48999,-27.39999 -5.76999,-56 -6.04999,-83.66998 -0.35,-34.61999 -0.70999,-70.42 -11.35,-103.75 C 447.99997,106.57005 385.79999,52.580048 302.89996,28.810059 228.53,7.5 150.27,11.270001 74.580002,14.93 l -0.05,-1 C 150.29001,10.270001 228.64,6.4900002 303.16998,27.860001 c 38.35001,11 73.76999,29.330001 102.43,53.009994 31.30999,25.870005 53.64999,57.699995 64.63,92.070005 10.69,33.47 11.04999,69.35001 11.39999,104.04999 0.28,27.62 0.56,56.17999 6.03,83.48001 11.45002,57.19 45.88001,108.48999 94.47003,140.74002 48.59003,32.26001 109.22999,44.08002 166.38001,32.44 l 0.20001,0.97998 c -14.46997,2.95002 -29.17999,4.40003 -43.84997,4.40003 h 0.01 z"
         style="fill:#29abe2;fill-opacity:1;fill-rule:nonzero;stroke:none"
         id="path3592"
         inkscape:connector-curvature="0" />
    </g>
  </g>
</svg>
