<?xml version="1.0" encoding="UTF-8" standalone="no"?>
<!-- Created with Inkscape (http://www.inkscape.org/) -->

<svg
   xmlns:dc="http://purl.org/dc/elements/1.1/"
   xmlns:cc="http://creativecommons.org/ns#"
   xmlns:rdf="http://www.w3.org/1999/02/22-rdf-syntax-ns#"
   xmlns:svg="http://www.w3.org/2000/svg"
   xmlns="http://www.w3.org/2000/svg"
   xmlns:sodipodi="http://sodipodi.sourceforge.net/DTD/sodipodi-0.dtd"
   xmlns:inkscape="http://www.inkscape.org/namespaces/inkscape"
   width="86.906998mm"
   height="299.439mm"
   viewBox="0 0 86.906998 299.439"
   version="1.1"
   id="svg2907"
   inkscape:version="0.92.3 (2405546, 2018-03-11)"
   sodipodi:docname="decor-amarelo.svg">
  <defs
     id="defs2901">
    <linearGradient
       x1="1.821"
       y1="69.990997"
       x2="942.55103"
       y2="69.990997"
       gradientUnits="userSpaceOnUse"
       gradientTransform="matrix(-0.85564149,-3.7082008,-3.7116611,0.85643999,10456.688,-13402.171)"
       spreadMethod="pad"
       id="linearGradient2812">
      <stop
         style="stop-opacity:1;stop-color:#fdd622"
         offset="0"
         id="stop2806" />
      <stop
         style="stop-opacity:1;stop-color:#e30613"
         offset="0.50599998"
         id="stop2808" />
      <stop
         style="stop-opacity:1;stop-color:#ef7d00"
         offset="1"
         id="stop2810" />
    </linearGradient>
    <linearGradient
       x1="1.7539999"
       y1="72.708"
       x2="941.45599"
       y2="72.708"
       gradientUnits="userSpaceOnUse"
       gradientTransform="matrix(-0.85564149,-3.7082008,-3.7116611,0.85643999,10456.688,-13402.171)"
       spreadMethod="pad"
       id="linearGradient2822">
      <stop
         style="stop-opacity:1;stop-color:#fdd622"
         offset="0"
         id="stop2816" />
      <stop
         style="stop-opacity:1;stop-color:#e30613"
         offset="0.50599998"
         id="stop2818" />
      <stop
         style="stop-opacity:1;stop-color:#ef7d00"
         offset="1"
         id="stop2820" />
    </linearGradient>
    <linearGradient
       x1="1.688"
       y1="75.462997"
       x2="940.36102"
       y2="75.462997"
       gradientUnits="userSpaceOnUse"
       gradientTransform="matrix(-0.85564149,-3.7082008,-3.7116611,0.85643999,10456.688,-13402.171)"
       spreadMethod="pad"
       id="linearGradient2832">
      <stop
         style="stop-opacity:1;stop-color:#fdd622"
         offset="0"
         id="stop2826" />
      <stop
         style="stop-opacity:1;stop-color:#e30613"
         offset="0.50599998"
         id="stop2828" />
      <stop
         style="stop-opacity:1;stop-color:#ef7d00"
         offset="1"
         id="stop2830" />
    </linearGradient>
    <linearGradient
       x1="1.622"
       y1="78.379997"
       x2="939.26501"
       y2="78.379997"
       gradientUnits="userSpaceOnUse"
       gradientTransform="matrix(-0.85564149,-3.7082008,-3.7116611,0.85643999,10456.688,-13402.171)"
       spreadMethod="pad"
       id="linearGradient2842">
      <stop
         style="stop-opacity:1;stop-color:#fdd622"
         offset="0"
         id="stop2836" />
      <stop
         style="stop-opacity:1;stop-color:#e30613"
         offset="0.50599998"
         id="stop2838" />
      <stop
         style="stop-opacity:1;stop-color:#ef7d00"
         offset="1"
         id="stop2840" />
    </linearGradient>
    <linearGradient
       x1="1.558"
       y1="81.407997"
       x2="938.16901"
       y2="81.407997"
       gradientUnits="userSpaceOnUse"
       gradientTransform="matrix(-0.85564149,-3.7082008,-3.7116611,0.85643999,10456.688,-13402.171)"
       spreadMethod="pad"
       id="linearGradient2852">
      <stop
         style="stop-opacity:1;stop-color:#fdd622"
         offset="0"
         id="stop2846" />
      <stop
         style="stop-opacity:1;stop-color:#e30613"
         offset="0.50599998"
         id="stop2848" />
      <stop
         style="stop-opacity:1;stop-color:#ef7d00"
         offset="1"
         id="stop2850" />
    </linearGradient>
    <linearGradient
       x1="1.495"
       y1="84.542"
       x2="937.07202"
       y2="84.542"
       gradientUnits="userSpaceOnUse"
       gradientTransform="matrix(-0.85564149,-3.7082008,-3.7116611,0.85643999,10456.688,-13402.171)"
       spreadMethod="pad"
       id="linearGradient2862">
      <stop
         style="stop-opacity:1;stop-color:#fdd622"
         offset="0"
         id="stop2856" />
      <stop
         style="stop-opacity:1;stop-color:#e30613"
         offset="0.50599998"
         id="stop2858" />
      <stop
         style="stop-opacity:1;stop-color:#ef7d00"
         offset="1"
         id="stop2860" />
    </linearGradient>
    <linearGradient
       x1="1.433"
       y1="87.779999"
       x2="935.974"
       y2="87.779999"
       gradientUnits="userSpaceOnUse"
       gradientTransform="matrix(-0.85564149,-3.7082008,-3.7116611,0.85643999,10456.688,-13402.171)"
       spreadMethod="pad"
       id="linearGradient2872">
      <stop
         style="stop-opacity:1;stop-color:#fdd622"
         offset="0"
         id="stop2866" />
      <stop
         style="stop-opacity:1;stop-color:#e30613"
         offset="0.50599998"
         id="stop2868" />
      <stop
         style="stop-opacity:1;stop-color:#ef7d00"
         offset="1"
         id="stop2870" />
    </linearGradient>
    <linearGradient
       x1="1.374"
       y1="90.355003"
       x2="934.87598"
       y2="90.355003"
       gradientUnits="userSpaceOnUse"
       gradientTransform="matrix(-0.85564149,-3.7082008,-3.7116611,0.85643999,10456.688,-13402.171)"
       spreadMethod="pad"
       id="linearGradient2882">
      <stop
         style="stop-opacity:1;stop-color:#fdd622"
         offset="0"
         id="stop2876" />
      <stop
         style="stop-opacity:1;stop-color:#e30613"
         offset="0.50599998"
         id="stop2878" />
      <stop
         style="stop-opacity:1;stop-color:#ef7d00"
         offset="1"
         id="stop2880" />
    </linearGradient>
    <linearGradient
       x1="1.317"
       y1="94.238998"
       x2="933.77802"
       y2="94.238998"
       gradientUnits="userSpaceOnUse"
       gradientTransform="matrix(-0.85564149,-3.7082008,-3.7116611,0.85643999,10456.688,-13402.171)"
       spreadMethod="pad"
       id="linearGradient2892">
      <stop
         style="stop-opacity:1;stop-color:#fdd622"
         offset="0"
         id="stop2886" />
      <stop
         style="stop-opacity:1;stop-color:#e30613"
         offset="0.50599998"
         id="stop2888" />
      <stop
         style="stop-opacity:1;stop-color:#ef7d00"
         offset="1"
         id="stop2890" />
    </linearGradient>
    <linearGradient
       x1="1.262"
       y1="97.918999"
       x2="932.67999"
       y2="97.918999"
       gradientUnits="userSpaceOnUse"
       gradientTransform="matrix(-0.85564149,-3.7082008,-3.7116611,0.85643999,10456.688,-13402.171)"
       spreadMethod="pad"
       id="linearGradient2902">
      <stop
         style="stop-opacity:1;stop-color:#fdd622"
         offset="0"
         id="stop2896" />
      <stop
         style="stop-opacity:1;stop-color:#e30613"
         offset="0.50599998"
         id="stop2898" />
      <stop
         style="stop-opacity:1;stop-color:#ef7d00"
         offset="1"
         id="stop2900" />
    </linearGradient>
    <linearGradient
       x1="1.212"
       y1="101.769"
       x2="931.58197"
       y2="101.769"
       gradientUnits="userSpaceOnUse"
       gradientTransform="matrix(-0.85564149,-3.7082008,-3.7116611,0.85643999,10456.688,-13402.171)"
       spreadMethod="pad"
       id="linearGradient2912">
      <stop
         style="stop-opacity:1;stop-color:#fdd622"
         offset="0"
         id="stop2906" />
      <stop
         style="stop-opacity:1;stop-color:#e30613"
         offset="0.50599998"
         id="stop2908" />
      <stop
         style="stop-opacity:1;stop-color:#ef7d00"
         offset="1"
         id="stop2910" />
    </linearGradient>
    <linearGradient
       x1="1.166"
       y1="102.904"
       x2="930.48401"
       y2="102.904"
       gradientUnits="userSpaceOnUse"
       gradientTransform="matrix(-0.85564149,-3.7082008,-3.7116611,0.85643999,10456.688,-13402.171)"
       spreadMethod="pad"
       id="linearGradient2922">
      <stop
         style="stop-opacity:1;stop-color:#fdd622"
         offset="0"
         id="stop2916" />
      <stop
         style="stop-opacity:1;stop-color:#e30613"
         offset="0.50599998"
         id="stop2918" />
      <stop
         style="stop-opacity:1;stop-color:#ef7d00"
         offset="1"
         id="stop2920" />
    </linearGradient>
    <linearGradient
       x1="1.127"
       y1="102.903"
       x2="929.38702"
       y2="102.903"
       gradientUnits="userSpaceOnUse"
       gradientTransform="matrix(-0.85564149,-3.7082008,-3.7116611,0.85643999,10456.688,-13402.171)"
       spreadMethod="pad"
       id="linearGradient2932">
      <stop
         style="stop-opacity:1;stop-color:#fdd622"
         offset="0"
         id="stop2926" />
      <stop
         style="stop-opacity:1;stop-color:#e30613"
         offset="0.50599998"
         id="stop2928" />
      <stop
         style="stop-opacity:1;stop-color:#ef7d00"
         offset="1"
         id="stop2930" />
    </linearGradient>
    <linearGradient
       x1="1.094"
       y1="102.73"
       x2="928.28998"
       y2="102.73"
       gradientUnits="userSpaceOnUse"
       gradientTransform="matrix(-0.85564149,-3.7082008,-3.7116611,0.85643999,10456.688,-13402.171)"
       spreadMethod="pad"
       id="linearGradient2942">
      <stop
         style="stop-opacity:1;stop-color:#fdd622"
         offset="0"
         id="stop2936" />
      <stop
         style="stop-opacity:1;stop-color:#e30613"
         offset="0.50599998"
         id="stop2938" />
      <stop
         style="stop-opacity:1;stop-color:#ef7d00"
         offset="1"
         id="stop2940" />
    </linearGradient>
    <linearGradient
       x1="1.0700001"
       y1="102.459"
       x2="927.19397"
       y2="102.459"
       gradientUnits="userSpaceOnUse"
       gradientTransform="matrix(-0.85564149,-3.7082008,-3.7116611,0.85643999,10456.688,-13402.171)"
       spreadMethod="pad"
       id="linearGradient2952">
      <stop
         style="stop-opacity:1;stop-color:#fdd622"
         offset="0"
         id="stop2946" />
      <stop
         style="stop-opacity:1;stop-color:#e30613"
         offset="0.50599998"
         id="stop2948" />
      <stop
         style="stop-opacity:1;stop-color:#ef7d00"
         offset="1"
         id="stop2950" />
    </linearGradient>
    <linearGradient
       x1="0.93599999"
       y1="102.142"
       x2="926.09802"
       y2="102.142"
       gradientUnits="userSpaceOnUse"
       gradientTransform="matrix(-0.85564149,-3.7082008,-3.7116611,0.85643999,10456.688,-13402.171)"
       spreadMethod="pad"
       id="linearGradient2962">
      <stop
         style="stop-opacity:1;stop-color:#fdd622"
         offset="0"
         id="stop2956" />
      <stop
         style="stop-opacity:1;stop-color:#e30613"
         offset="0.50599998"
         id="stop2958" />
      <stop
         style="stop-opacity:1;stop-color:#ef7d00"
         offset="1"
         id="stop2960" />
    </linearGradient>
    <linearGradient
       x1="0.79100001"
       y1="101.811"
       x2="925.00299"
       y2="101.811"
       gradientUnits="userSpaceOnUse"
       gradientTransform="matrix(-0.85564149,-3.7082008,-3.7116611,0.85643999,10456.688,-13402.171)"
       spreadMethod="pad"
       id="linearGradient2972">
      <stop
         style="stop-opacity:1;stop-color:#fdd622"
         offset="0"
         id="stop2966" />
      <stop
         style="stop-opacity:1;stop-color:#e30613"
         offset="0.50599998"
         id="stop2968" />
      <stop
         style="stop-opacity:1;stop-color:#ef7d00"
         offset="1"
         id="stop2970" />
    </linearGradient>
    <linearGradient
       x1="0.63800001"
       y1="101.483"
       x2="923.909"
       y2="101.483"
       gradientUnits="userSpaceOnUse"
       gradientTransform="matrix(-0.85564149,-3.7082008,-3.7116611,0.85643999,10456.688,-13402.171)"
       spreadMethod="pad"
       id="linearGradient2982">
      <stop
         style="stop-opacity:1;stop-color:#fdd622"
         offset="0"
         id="stop2976" />
      <stop
         style="stop-opacity:1;stop-color:#e30613"
         offset="0.50599998"
         id="stop2978" />
      <stop
         style="stop-opacity:1;stop-color:#ef7d00"
         offset="1"
         id="stop2980" />
    </linearGradient>
    <linearGradient
       x1="0.48300001"
       y1="101.167"
       x2="922.815"
       y2="101.167"
       gradientUnits="userSpaceOnUse"
       gradientTransform="matrix(-0.85564149,-3.7082008,-3.7116611,0.85643999,10456.688,-13402.171)"
       spreadMethod="pad"
       id="linearGradient2992">
      <stop
         style="stop-opacity:1;stop-color:#fdd622"
         offset="0"
         id="stop2986" />
      <stop
         style="stop-opacity:1;stop-color:#e30613"
         offset="0.50599998"
         id="stop2988" />
      <stop
         style="stop-opacity:1;stop-color:#ef7d00"
         offset="1"
         id="stop2990" />
    </linearGradient>
    <linearGradient
       x1="0.33700001"
       y1="100.865"
       x2="921.72198"
       y2="100.865"
       gradientUnits="userSpaceOnUse"
       gradientTransform="matrix(-0.85564149,-3.7082008,-3.7116611,0.85643999,10456.688,-13402.171)"
       spreadMethod="pad"
       id="linearGradient3002">
      <stop
         style="stop-opacity:1;stop-color:#fdd622"
         offset="0"
         id="stop2996" />
      <stop
         style="stop-opacity:1;stop-color:#e30613"
         offset="0.50599998"
         id="stop2998" />
      <stop
         style="stop-opacity:1;stop-color:#ef7d00"
         offset="1"
         id="stop3000" />
    </linearGradient>
    <linearGradient
       x1="0.207"
       y1="100.58"
       x2="920.63"
       y2="100.58"
       gradientUnits="userSpaceOnUse"
       gradientTransform="matrix(-0.85564149,-3.7082008,-3.7116611,0.85643999,10456.688,-13402.171)"
       spreadMethod="pad"
       id="linearGradient3012">
      <stop
         style="stop-opacity:1;stop-color:#fdd622"
         offset="0"
         id="stop3006" />
      <stop
         style="stop-opacity:1;stop-color:#e30613"
         offset="0.50599998"
         id="stop3008" />
      <stop
         style="stop-opacity:1;stop-color:#ef7d00"
         offset="1"
         id="stop3010" />
    </linearGradient>
    <linearGradient
       x1="0.096000001"
       y1="100.314"
       x2="919.53802"
       y2="100.314"
       gradientUnits="userSpaceOnUse"
       gradientTransform="matrix(-0.85564149,-3.7082008,-3.7116611,0.85643999,10456.688,-13402.171)"
       spreadMethod="pad"
       id="linearGradient3022">
      <stop
         style="stop-opacity:1;stop-color:#fdd622"
         offset="0"
         id="stop3016" />
      <stop
         style="stop-opacity:1;stop-color:#e30613"
         offset="0.50599998"
         id="stop3018" />
      <stop
         style="stop-opacity:1;stop-color:#ef7d00"
         offset="1"
         id="stop3020" />
    </linearGradient>
    <linearGradient
       x1="0"
       y1="100.066"
       x2="918.47302"
       y2="100.066"
       gradientUnits="userSpaceOnUse"
       gradientTransform="matrix(-0.85564149,-3.7082008,-3.7116611,0.85643999,10456.688,-13402.171)"
       spreadMethod="pad"
       id="linearGradient3032">
      <stop
         style="stop-opacity:1;stop-color:#fdd622"
         offset="0"
         id="stop3026" />
      <stop
         style="stop-opacity:1;stop-color:#e30613"
         offset="0.50599998"
         id="stop3028" />
      <stop
         style="stop-opacity:1;stop-color:#ef7d00"
         offset="1"
         id="stop3030" />
    </linearGradient>
  </defs>
  <sodipodi:namedview
     id="base"
     pagecolor="#ffffff"
     bordercolor="#666666"
     borderopacity="1.0"
     inkscape:pageopacity="0.0"
     inkscape:pageshadow="2"
     inkscape:zoom="0.42053519"
     inkscape:cx="337.52173"
     inkscape:cy="565.31875"
     inkscape:document-units="mm"
     inkscape:current-layer="layer1"
     showgrid="false" />
  <metadata
     id="metadata2904">
    <rdf:RDF>
      <cc:Work
         rdf:about="">
        <dc:format>image/svg+xml</dc:format>
        <dc:type
           rdf:resource="http://purl.org/dc/dcmitype/StillImage" />
        <dc:title></dc:title>
      </cc:Work>
    </rdf:RDF>
  </metadata>
  <g
     inkscape:label="Layer 1"
     inkscape:groupmode="layer"
     id="layer1"
     transform="translate(0,2.439)">
    <g
       style="display:inline;opacity:0.5"
       id="g2804"
       transform="matrix(-0.07244431,0.31396096,-0.31425396,-0.07251191,99.365215,6.7279254)">
      <path
         d="M 2.0999999,75.699997 C 19.800001,87.299995 44.099998,81.199997 61.299999,69 78.5,56.800003 91.400002,39.400002 107.5,25.700001 123.6,12 145.39999,1.8000011 165.5,8.2000008 193,16.900002 202.60001,49.799999 211.2,77.399994 c 8.5,27.599996 27.8,59.199996 56.50001,55.999996 17.20001,-1.89999 30.20001,-16.5 39.20001,-31.4 9,-14.800001 16.10001,-31.399999 29.4,-42.599996 26.70001,-22.400002 67.5,-14.400002 98.1,2.099998 30.60001,16.5 57.79999,40.599998 91.5,49.399998 50.09998,13 101.5,-10.5 148.5,-32.199993 47,-21.699997 100.69996,-42.099999 149,-23.699997 20.40003,7.799999 37.79999,22 58,30.099998 20.20002,8.199997 46.40003,8.599999 60.70002,-7.800003"
         style="fill:none;stroke:url(#linearGradient2812);stroke-width:1;stroke-linecap:butt;stroke-linejoin:miter;stroke-miterlimit:10;stroke-dasharray:none;stroke-opacity:1"
         id="path2814"
         inkscape:connector-curvature="0" />
      <path
         d="M 2,78 C 19,88.800003 42.400002,82.800003 59.099998,71 75.800003,59.200001 88.400002,42.5 104,29.5 c 13.2,-11 30.3,-19.6000004 47,-18.299999 3.10001,0.2 6.2,0.8 9.3,1.8 26.60001,8.499999 36.09999,40.2 44.5,66.900001 8.4,26.599998 26.9,56.599998 54.49999,54.499988 12.89999,-1 23.5,-8.19999 32.1,-17.9 2.79999,-3.1 5.4,-6.5 7.70002,-9.9 9.6,-14.099998 17.6,-30.499999 31,-41.999999 18.1,-15.5 42,-18.099999 65.19998,-13.700001 11.1,2.099999 22.1,5.799999 32.1,10.5 28.60001,13.399998 54.9,33.399998 86.10001,42.8 2.29999,0.7 4.70001,1.4 7.09998,1.9 41,9.9 82.90002,-1.6 121.90002,-15.800002 9.40002,-3.400002 18.70001,-7 27.90002,-10.599999 C 688.5,72.799988 707.5,65.899986 727.20001,60.799988 c 31.40003,-8.200001 63.59998,-12.299999 93.70001,-2.5 5.70002,1.799999 11.20002,4.200001 16.5,6.699997 14,6.599998 27.29999,14.599998 42.09998,19.699997 20.5,7 46.70001,6.900001 61.70001,-8.699997"
         style="fill:none;stroke:url(#linearGradient2822);stroke-width:1;stroke-linecap:butt;stroke-linejoin:miter;stroke-miterlimit:10;stroke-dasharray:none;stroke-opacity:1"
         id="path2824"
         inkscape:connector-curvature="0" />
      <path
         d="M 1.9000001,80.400002 C 18.1,90.300003 40.600002,84.300003 56.800003,73 73,61.5 85.300003,45.599998 100.5,33.200001 113.3,22.700001 129.89999,14.6 146,15.900002 c 3,0.299999 6,0.799999 9,1.799999 C 180.7,26 190,56.5 198.3,82.199997 c 8.2,25.699993 26.10001,51.400013 52.59999,52.900013 12.70002,0.8 23.20002,-6.30001 32.29999,-15.1 2.9,-2.8 5.70001,-5.9 8.20001,-9.2 10.29999,-13.300002 19.10001,-29.599998 32.70002,-41.499999 18.20001,-15.900002 41.5,-19.700001 64.39999,-16.8 11,1.400002 21.89999,4.3 32,8.3 28.79999,11.300003 55.89999,29.5 87.60001,38.299995 2.39999,0.699997 4.80001,1.300004 7.19998,1.800004 41.70001,9.4 84.29999,-0.5 123.29999,-12.000001 9.40002,-2.800003 18.70001,-5.699997 27.79998,-8.5 18,-5.5 37,-11 56.90003,-15.400001 31.79999,-7.099999 64.59997,-11.8 94.90002,-3.700001 5.79999,1.5 11.29999,3.499996 16.70001,5.700001 14.09998,5.699997 27.59998,12.599998 42.5,17 20.70002,5.900001 47,5.199997 62.70002,-9.599999"
         style="fill:none;stroke:url(#linearGradient2832);stroke-width:1;stroke-linecap:butt;stroke-linejoin:miter;stroke-miterlimit:10;stroke-dasharray:none;stroke-opacity:1"
         id="path2834"
         inkscape:connector-curvature="0" />
      <path
         d="M 1.9000001,82.699997 C 17.4,91.799995 39,85.899994 54.600002,74.899994 c 15.600003,-11 27.600003,-26.200001 42.399998,-38 12.4,-10 28.4,-17.6 44,-16.200001 2.89999,0.299999 5.8,0.799999 8.60001,1.799999 24.8,8.100001 34,37.400002 42.1,62.200005 8.10001,24.800003 25.60001,47.699993 50.7,51.400013 12.39999,1.89999 23.00001,-4.30001 32.50001,-12.2 3,-2.6 6,-5.4 8.60001,-8.4 11,-12.5 20.60001,-28.700007 34.29999,-41.000002 18.29999,-16.3 41,-21.400002 63.6,-20 10.9,0.7 21.79999,2.900001 31.9,6.099998 29,9.199997 56.79999,25.599999 89.1,33.800003 2.4,0.599999 4.9,1.199997 7.29999,1.699997 42.5,8.800004 85.70001,0.699997 124.59998,-8.199997 9.40002,-2.199997 18.59997,-4.400001 27.70001,-6.5 18,-4.199997 36.90002,-8.300003 57.09998,-11.900001 32.20001,-5.900002 65.5,-11.3 96.09997,-4.800003 5.79999,1.199997 11.40003,2.900001 16.79999,4.699997 14.20001,4.699996 27.90002,10.699996 43,14.199996 C 895.89996,88.400002 922.19995,87.199997 938.69995,73"
         style="fill:none;stroke:url(#linearGradient2842);stroke-width:1;stroke-linecap:butt;stroke-linejoin:miter;stroke-miterlimit:10;stroke-dasharray:none;stroke-opacity:1"
         id="path2844"
         inkscape:connector-curvature="0" />
      <path
         d="M 1.8,85 C 16.6,93.199997 37.200001,87.400002 52.399998,76.800003 67.5,66.200005 79.199997,51.700005 93.599998,40.500004 105.7,31.100004 121.1,23.900003 136.10001,25.300003 c 2.8,0.299999 5.6,0.799999 8.3,1.700001 23.89999,7.900001 33,36 40.90001,59.900005 7.89999,23.800001 25.2,44.200001 48.8,49.900011 12.10001,2.89999 22.8,-2.30001 32.7,-9.4 3.20001,-2.30001 6.29999,-4.9 9.1,-7.7 11.70002,-11.7 22.10001,-27.900002 35.9,-40.400002 18.39999,-16.7 40.5,-22.900001 62.79999,-23.2 10.79998,-0.1 21.6,1.400001 31.79998,3.900001 29.20002,7.100002 57.70002,21.700001 90.60001,29.299999 2.5,0.599999 5,1.099999 7.5,1.599999 43.20001,8.300003 87.09998,1.800003 126,-4.400002 9.40002,-1.5 18.59998,-3 27.59998,-4.400001 17.90002,-2.800003 36.79998,-5.5 57.29998,-8.400002 32.59998,-4.800003 66.40003,-10.799999 97.40003,-5.900001 5.90002,0.900001 11.5,2.199997 17,3.699997 14.40002,3.800003 28.20001,8.800003 43.40002,11.5 21.09998,3.699997 47.5,1.900001 64.59998,-11.5"
         style="fill:none;stroke:url(#linearGradient2852);stroke-width:1;stroke-linecap:butt;stroke-linejoin:miter;stroke-miterlimit:10;stroke-dasharray:none;stroke-opacity:1"
         id="path2854"
         inkscape:connector-curvature="0" />
      <path
         d="m 1.7,87.300003 c 14,7.400002 33.8,1.599999 48.400002,-8.599998 C 64.700005,68.600006 76.100006,54.800003 90,44.200005 c 11.7,-8.900002 26.6,-15.700001 41.10001,-14.100001 2.69999,0.299999 5.39999,0.799999 8,1.700001 23,7.699999 31.89999,34.599997 39.69999,57.499998 7.80001,22.900007 24.9,40.900007 46.90001,48.400007 11.80001,4 22.60001,-0.3 32.9,-6.5 3.29998,-2 6.6,-4.3 9.6,-7 12.4,-10.9 23.60001,-26.999998 37.60001,-39.899999 18.5,-17.099999 40,-24.8 62,-26.3 10.6,-0.7 21.5,-0.1 31.79999,1.700001 29.29998,5.099999 58.6,17.800003 92.1,24.699997 2.5,0.5 5,1 7.60001,1.5 43.89999,7.800003 88.6,2.900002 127.30002,-0.699997 9.40002,-0.900001 18.5,-1.699997 27.5,-2.400001 17.90002,-1.400002 36.59997,-2.699997 57.5,-5 33,-3.599999 67.29998,-10.300003 98.59997,-7.099999 5.90003,0.599999 11.59998,1.599999 17.20001,2.699997 14.5,2.900002 28.5,6.800003 43.90003,8.699997 21.40002,2.599999 47.79999,0.199997 65.59997,-12.400001"
         style="fill:none;stroke:url(#linearGradient2862);stroke-width:1;stroke-linecap:butt;stroke-linejoin:miter;stroke-miterlimit:10;stroke-dasharray:none;stroke-opacity:1"
         id="path2864"
         inkscape:connector-curvature="0" />
      <path
         d="M 1.7,89.599998 C 15,96.199997 33.900002,90.400002 47.900002,80.699997 61.900002,71 73.100006,57.899998 86.600006,47.899998 98.000008,39.5 112.3,33.199997 126.20001,34.799995 c 2.59999,0.3 5.2,0.8 7.7,1.700001 22.1,7.5 30.89999,33.200001 38.59999,55.200001 7.7,21.900003 24.8,37.900013 44.89999,46.800003 11.4,5.10001 22.5,1.60001 33.10001,-3.60001 3.39999,-1.69999 6.79999,-3.8 10.10001,-6.3 13.1,-10.1 25.1,-26.1 39.20001,-39.300002 18.6,-17.5 39.5,-26.5 61.20001,-29.5 10.5,-1.400002 21.29999,-1.599999 31.70001,-0.5 29.5,3 59.5,13.900001 93.60001,20.199997 2.6,0.5 5.1,0.900001 7.70001,1.300003 44.59998,7.199997 90,4.099998 128.70001,3.099998 9.40003,-0.199997 18.40003,-0.400001 27.40003,-0.400001 17.79999,0.1 36.5,0.1 57.59997,-1.5 33.29999,-2.400002 68.20002,-9.800003 99.79999,-8.199997 6,0.300003 11.70001,0.900001 17.29999,1.699997 14.59997,2 28.79999,4.900001 44.29999,6 21.59997,1.5 48,-1.5 66.59997,-13.300003"
         style="fill:none;stroke:url(#linearGradient2872);stroke-width:1;stroke-linecap:butt;stroke-linejoin:miter;stroke-miterlimit:10;stroke-dasharray:none;stroke-opacity:1"
         id="path2874"
         inkscape:connector-curvature="0" />
      <path
         d="m 1.6,91.900002 c 12.600001,5.800003 30.499998,0 44.099997,-9.300004 13.5,-9.300003 24.400001,-21.7 37.400001,-31 11,-7.900001 24.799992,-13.7 38.100002,-12.099998 2.5,0.299999 5,0.900002 7.39999,1.700001 C 149.79999,48.5 158.39999,73 166,94.100006 c 7.5,21.000004 22.39999,41.699994 43,45.300004 12.39999,2.2 22.3,3.6 33.3,-0.8 3.60001,-1.4 7.10001,-3.30001 10.5,-5.60001 13.7,-9.3 26.59999,-25.2 40.90001,-38.800003 18.79999,-17.900002 39,-28.199997 60.4,-32.599999 10.39999,-2.2 21.20001,-3 31.6,-2.7 29.60001,1 60.4,9.999996 95.10001,15.7 2.6,0.400002 5.20001,0.800004 7.89999,1.199997 45.29999,6.699997 91.40003,5.199997 130,6.900002 9.40003,0.400001 18.40003,1 27.29999,1.699997 17.79999,1.300003 36.40002,2.800003 57.79999,2 33.70001,-1.300003 69.09997,-9.300003 101,-9.300003 6,0 11.79999,0.300003 17.5,0.699997 C 837,78.899986 851.39996,80.699989 867,80.999985 c 21.79999,0.400001 48.29999,-3.199997 67.5,-14.199997"
         style="fill:none;stroke:url(#linearGradient2882);stroke-width:1;stroke-linecap:butt;stroke-linejoin:miter;stroke-miterlimit:10;stroke-dasharray:none;stroke-opacity:1"
         id="path2884"
         inkscape:connector-curvature="0" />
      <path
         d="M 1.5,94.199997 C 13.3,99.099998 30.4,93.5 43.400002,84.5 56.400002,75.599998 67,64 79.599998,55.299999 90.199997,48 103.5,42.599998 116.2,44.299999 c 2.4,0.299999 4.69999,0.900002 7.1,1.700001 20.29999,7.099998 28.79999,30.400002 36.2,50.5 7.39999,20.1 21.3,43.10001 41.10001,43.8 11.69999,5 22.1,5.60001 33.5,2.10001 3.69999,-1.10001 7.39999,-2.8 11,-4.9 14.39999,-8.5 28.1,-24.3 42.5,-38.199992 18.89999,-18.199997 38.5,-29.900001 59.6,-35.799999 10.29999,-2.900001 21,-4.5 31.5,-4.900001 29.79999,-1.099999 61.4,6.100002 96.70001,11.2 2.60001,0.400002 5.29999,0.800003 8,1.099999 46,6.099998 92.79999,6.300003 131.40003,10.699997 9.40002,1.099998 18.29999,2.300003 27.20001,3.699997 17.79999,2.699997 36.29999,5.599998 58,5.5 34.09998,-0.1 70,-8.800003 102.29999,-10.400002 6.09997,-0.300003 12,-0.400001 17.59997,-0.300003 14.90003,0.1 29.40003,1 45.20002,0.5 22.09997,-0.699997 48.59997,-4.900001 68.5,-15.099998"
         style="fill:none;stroke:url(#linearGradient2892);stroke-width:1;stroke-linecap:butt;stroke-linejoin:miter;stroke-miterlimit:10;stroke-dasharray:none;stroke-opacity:1"
         id="path2894"
         inkscape:connector-curvature="0" />
      <path
         d="M 1.4,96.5 C 12.5,100.6 28.6,95 41.200001,86.400002 53.599998,78 63.900002,67 76.099998,58.900002 c 10.300004,-6.8 23,-11.700001 35.200002,-10 2.30001,0.299999 4.5,0.900001 6.80001,1.7 19.39999,6.900002 27.69999,29.000004 35,48.200001 7.19999,19.099997 20.5,41.099987 39.19999,42.300007 11.5,5.8 21.9,7.6 33.59999,5 3.9,-0.9 7.7,-2.2 11.5,-4.2 15.10001,-7.7 29.60001,-23.4 44.10001,-37.7 19,-18.599996 38,-31.599996 58.79999,-38.999998 10.20001,-3.599998 20.79999,-6 31.39999,-7.099998 30,-3.099999 62.29999,2.2 98.19998,6.699997 2.70002,0.300003 5.4,0.699997 8.10001,1 46.80002,5.599998 94.19998,7.5 132.69998,14.5 C 620.09998,82 629,84 637.90002,86 c 17.70002,4.099998 36.20002,8.300003 58.20002,9 34.5,1 70.90002,-8.300003 103.5,-11.599998 6.09997,-0.599999 12.09997,-1 17.79998,-1.300004 15,-0.800003 29.70002,-1 45.59998,-2.199996 22.29999,-1.800004 48.79999,-6.599999 69.5,-16"
         style="fill:none;stroke:url(#linearGradient2902);stroke-width:1;stroke-linecap:butt;stroke-linejoin:miter;stroke-miterlimit:10;stroke-dasharray:none;stroke-opacity:1"
         id="path2904"
         inkscape:connector-curvature="0" />
      <path
         d="M 1.4,98.800003 C 11.7,102.1 27,96.599998 39,88.400002 c 11.900002,-8.099999 21.900002,-18.299996 33.699997,-25.8 9.900001,-6.299999 22.099998,-10.7 33.699993,-8.899997 2.2,0.299999 4.30001,0.900001 6.40001,1.599998 18.49999,6.700001 26.7,27.599999 33.79999,45.900007 7.10001,18.2 19.7,39 37.3,40.7 11.30001,6.6 21.7,9.6 33.80001,7.8 4,-0.6 8,-1.7 11.89999,-3.39999 15.7,-6.9 31.09999,-22.5 45.8,-37.1 19.10001,-19 37.5,-33.299996 58,-42.099999 10.10001,-4.299999 20.70002,-7.400001 31.29999,-9.299999 30.10001,-5.200001 63.20001,-1.700001 99.69998,2.200001 2.70002,0.299999 5.5,0.599998 8.29999,0.900001 47.5,5 95.59998,8.599999 134.09998,18.300003 9.29998,2.300004 18.20001,5 27.09997,7.800004 17.70001,5.5 36.09998,11.099998 58.29999,12.5 34.90002,2.199999 71.79999,-7.800004 104.70001,-12.699997 6.20001,-0.900002 12.20001,-1.599999 18,-2.300003 15.09998,-1.699997 30,-2.900002 46.09998,-5 22.59997,-2.900002 49.09997,-8.300004 70.40002,-16.900002"
         style="fill:none;stroke:url(#linearGradient2912);stroke-width:1;stroke-linecap:butt;stroke-linejoin:miter;stroke-miterlimit:10;stroke-dasharray:none;stroke-opacity:1"
         id="path2914"
         inkscape:connector-curvature="0" />
      <path
         d="M 1.2999999,101.2 C 11,103.7 25.299999,98.099998 36.700001,90.399994 48,82.699997 57.800003,73.199997 69.199997,66.399994 c 9.5,-5.799999 21.099998,-9.700001 32.199993,-7.900002 2.1,0.3 4.1,0.900002 6.1,1.599999 17.6,6.5 25.6,26.199997 32.6,43.499999 6.89999,17.3 18.89999,37 35.40001,39.2 11.2,7.39999 21.5,11.6 34,10.69999 4.10001,-0.3 8.3,-1.19999 12.39999,-2.69999 16.4,-6.10001 32.7,-21.60001 47.4,-36.6 19.20001,-19.400002 37,-35.000001 57.20001,-45.299996 10,-5 20.5,-8.900002 31.20001,-11.5 30.29999,-7.200001 64.10001,-5.599999 101.20001,-2.400002 2.79999,0.200001 5.60001,0.5 8.4,0.8 48.19998,4.5 97.00003,9.799999 135.39999,22.100002 9.29999,3 18.20001,6.400001 27,9.800003 17.70001,6.900001 36,13.800003 58.5,16.000003 C 723.5,107 761,96.399994 794.20001,89.899994 800.5,88.699997 806.5,87.599991 812.29999,86.599991 c 15.20001,-2.599999 30.29999,-4.900002 46.5,-7.699997 22.79999,-4.099999 49.40002,-10 71.40002,-17.799999"
         style="fill:none;stroke:url(#linearGradient2922);stroke-width:1;stroke-linecap:butt;stroke-linejoin:miter;stroke-miterlimit:10;stroke-dasharray:none;stroke-opacity:1"
         id="path2924"
         inkscape:connector-curvature="0" />
      <path
         d="M 1.2,103.5 C 10.099999,105.1 23.5,99.599998 34.5,92.300003 45.299999,85 54.799999,76.199997 65.699997,70 74.899994,64.800003 85.899994,61.299999 96.399994,63.099998 98.399994,63.399998 100.3,64 102.2,64.699997 118.89999,71 126.8,89.5 133.7,105.89999 c 6.8,16.30001 18.1,35 33.40001,37.7 11,8.2 21.3,13.3 34.19999,13.5 4.30001,0.10001 8.60001,-0.7 12.9,-2 17.1,-5.39999 34.19999,-20.7 49.00001,-36.1 19.29999,-19.799993 36.5,-36.700002 56.4,-48.499998 9.79998,-5.800003 20.39999,-10.400001 31.20001,-13.599998 30.39999,-9.299999 65,-9.5 102.69998,-6.900002 2.79999,0.200001 5.70001,0.400002 8.5,0.599999 48.89999,4 98.40002,10.900001 136.79999,25.800003 9.29999,3.599998 18.09997,7.699997 26.90002,11.900001 17.59998,8.300003 35.90003,16.599995 58.70001,19.400005 35.70002,4.5 73.70002,-6.80001 107.20002,-15.000003 6.29998,-1.5 12.40002,-2.900002 18.29998,-4.300003 15.40003,-3.5 30.59998,-6.800003 47,-10.5 23,-5.199997 49.59998,-11.699997 72.40003,-18.799999"
         style="fill:none;stroke:url(#linearGradient2932);stroke-width:1;stroke-linecap:butt;stroke-linejoin:miter;stroke-miterlimit:10;stroke-dasharray:none;stroke-opacity:1"
         id="path2934"
         inkscape:connector-curvature="0" />
      <path
         d="m 1.1,105.8 c 8.2000002,0.80001 20.700001,-4.59999 31.100001,-11.599995 10.299999,-6.900002 19.5,-14.900002 30,-20.5 C 71,69 81.5,66 91.5,67.900002 93.400002,68.300003 95.199997,68.800003 97,69.5 c 15.8,6.099998 23.5,23.400002 30.3,38.9 6.7,15.4 17.2,32.99999 31.5,36.20001 10.80001,9 21.2,15.5 34.40001,16.39999 4.4,0.3 8.9,-0.10001 13.4,-1.3 17.69999,-4.60001 35.69999,-19.80001 50.70001,-35.5 19.39999,-20.2 36,-38.500003 55.6,-51.600002 9.70002,-6.5 20.20002,-11.799999 31.10001,-15.799999 30.60001,-11.299999 65.89999,-13.5 104.19998,-11.399997 2.9,0.2 5.70001,0.299999 8.60001,0.5 49.6,3.400001 99.80002,12 138.1,29.599998 9.29999,4.300003 18.09998,9.099998 26.79999,13.900002 17.59998,9.699996 35.70001,19.299998 58.90003,22.899998 36.09997,5.6 74.59997,-6.3 108.40002,-16.099995 6.40003,-1.800003 12.5,-3.599999 18.40003,-5.300003 15.5,-4.5 30.90002,-8.800004 47.40002,-13.199997 23.29999,-6.300003 49.90002,-13.400002 73.40002,-19.700001"
         style="fill:none;stroke:url(#linearGradient2942);stroke-width:1;stroke-linecap:butt;stroke-linejoin:miter;stroke-miterlimit:10;stroke-dasharray:none;stroke-opacity:1"
         id="path2944"
         inkscape:connector-curvature="0" />
      <path
         d="m 1.1,108.1 c 7.5000004,0 19.100001,-5.4 28.9,-12.000002 9.700001,-6.5 18.599998,-13.800003 28.700001,-18.799995 C 67.199997,73.100006 77.099998,70.600006 86.5,72.5 88.199997,72.900002 90,73.400002 91.699997,74.099998 106.6,80 114.2,96 120.8,110.6 c 6.5,14.5 16.4,31.00001 29.59999,34.6 10.7,9.8 21,17.5 34.60001,19.3 4.60001,0.60001 9.2,0.39999 13.8,-0.60001 18.4,-3.8 37.2,-18.89999 52.30001,-35 19.5,-20.59999 35.39999,-40.199993 54.79998,-54.799999 9.60001,-7.199997 20,-13.299999 31,-18 30.79999,-13.299999 66.9,-17.400002 105.69999,-15.900002 2.89999,0.1 5.79998,0.200001 8.79998,0.400002 50.29999,2.900001 101.20002,13.200001 139.5,33.400001 9.29999,4.900002 18,10.400002 26.70002,15.900002 17.59997,11.099996 35.59997,22.099996 59,26.400006 36.5,6.69999 75.5,-5.80001 109.59997,-17.200009 6.40003,-2.099999 12.59998,-4.199997 18.59998,-6.300003 15.59997,-5.400002 31.20001,-10.699997 47.90002,-16 23.5,-7.400002 50.20001,-15.099999 74.29999,-20.599999"
         style="fill:none;stroke:url(#linearGradient2952);stroke-width:1;stroke-linecap:butt;stroke-linejoin:miter;stroke-miterlimit:10;stroke-dasharray:none;stroke-opacity:1"
         id="path2954"
         inkscape:connector-curvature="0" />
      <path
         d="m 1,110.4 c 6.6999998,-0.8 17.4,-6.19999 26.799999,-12.300002 9.200001,-6 17.799999,-12.699996 27.5,-17 8.100003,-3.699996 17.500004,-5.699996 26.299999,-3.699996 1.599999,0.400001 3.300004,0.900001 4.900002,1.5 14,5.800003 21.4,20.5 27.9,34.200008 6.4,13.5 15.6,28.89999 27.70001,33.1 10.5,10.7 20.8,19.5 34.8,22.10001 4.7,0.89999 9.5,0.89999 14.3,0.1 19.10001,-3 38.7,-18 54,-34.39999 19.60001,-21 34.9,-41.900001 54,-57.900001 9.5,-8 19.9,-14.700001 30.9,-20.200001 C 361,40.500031 397.90002,34.600029 437.29999,35.500031 c 3,0.1 5.89999,0.2 8.89999,0.299999 C 497.20001,38 548.70001,50 587,72.900002 c 9.29999,5.599998 18,11.800003 26.59998,18 17.5,12.499998 35.5,24.799998 59.20001,29.899998 36.90002,7.9 76.40002,-5.3 110.90002,-18.3 6.5,-2.4 12.70001,-4.900002 18.79999,-7.300003 C 818.20001,88.899994 834,82.5 850.79999,76.5 874.5,68 901.29999,59.700001 926.09998,55"
         style="fill:none;stroke:url(#linearGradient2962);stroke-width:1;stroke-linecap:butt;stroke-linejoin:miter;stroke-miterlimit:10;stroke-dasharray:none;stroke-opacity:1"
         id="path2964"
         inkscape:connector-curvature="0" />
      <path
         d="M 0.90000004,112.7 C 6.9000001,111 16.700001,105.7 25.5,100 34.200001,94.400002 42.5,88.5 51.700001,84.699997 59.400002,81.599998 68.300003,80 76.5,82 78,82.400002 79.599998,82.900002 81.099998,83.5 94.299995,89.099998 101.5,102.6 107.8,115.4 c 6.2,12.6 14.80001,26.9 25.80001,31.6 10.3,11.5 20.6,21.5 35,25 4.8,1.2 9.8,1.39999 14.8,0.8 19.7,-2.3 40.2,-17.1 55.59999,-33.90001 19.70001,-21.4 34.39999,-43.599995 53.20001,-61.099995 9.4,-8.699997 19.70001,-16.2 30.79999,-22.400001 31.10001,-17.400002 68.70001,-25.200001 108.79999,-24.9 3,0 6,0.100001 9,0.200001 51.79999,1.800001 104,15.4 142.20001,41.000002 9.29999,6.199997 17.90002,13.099998 26.5,20 C 627,105.6 644.90002,119.2 668.90002,125.1 706.20001,134 746.20001,120.3 781,105.6 c 6.5,-2.7 12.90002,-5.5 18.90002,-8.300005 15.90003,-7.199997 31.79999,-14.599998 48.79999,-21.5 24,-9.699997 50.70001,-18.5 76.29999,-22.400001"
         style="fill:none;stroke:url(#linearGradient2972);stroke-width:1;stroke-linecap:butt;stroke-linejoin:miter;stroke-miterlimit:10;stroke-dasharray:none;stroke-opacity:1"
         id="path2974"
         inkscape:connector-curvature="0" />
      <path
         d="M 0.90000004,115 C 6.2000003,112.5 15.099999,107.3 23.4,101.9 31.5,96.700005 39.599998,91.5 48.400002,88.400002 c 7.400001,-2.599999 15.699996,-3.800004 23.400001,-1.599999 1.400002,0.400002 2.800003,0.900002 4.199997,1.5 C 88.300003,93.700005 95.300003,106 101.5,117.8 c 6.1,11.7 14,24.9 23.9,30 10.20001,12.30001 20.4,23.60001 35.20001,27.80001 5,1.39999 10.1,1.89999 15.19999,1.6 20.4,-1.5 41.7,-16.2 57.2,-33.3 19.8,-21.8 33.89999,-45.400002 52.39999,-64.300004 9.20002,-9.400001 19.60001,-17.700001 30.70002,-24.599998 31.29998,-19.400002 69.6,-29.100001 110.30001,-29.5 3,0 6.10001,0 9.20002,0.1 C 488,26.9 540.90002,42.200001 579,70.400002 c 9.20001,6.800003 17.79999,14.5 26.40002,22 C 622.80005,107.70001 640.70001,122.7 665,129.3 c 37.70001,10.10001 78.20001,-4.3 113.29999,-20.59999 6.59997,-3 13,-6.2 19.09997,-9.300008 16,-8.099999 32.09998,-16.599999 49.20002,-24.200005 24.20001,-10.800003 51,-20.200001 77.20001,-23.299999"
         style="fill:none;stroke:url(#linearGradient2982);stroke-width:1;stroke-linecap:butt;stroke-linejoin:miter;stroke-miterlimit:10;stroke-dasharray:none;stroke-opacity:1"
         id="path2984"
         inkscape:connector-curvature="0" />
      <path
         d="M 0.80000001,117.3 C 5.3000002,114 13.3,108.8 21.099998,103.8 28.699999,99 36.5,94.5 44.799999,92 c 7,-2.099998 14.799999,-2.800003 21.899998,-0.599998 1.300003,0.400001 2.599998,0.900001 3.900001,1.5 C 82,98.099998 88.900002,109.3 95,120.2 c 5.9,10.69999 14.3,21.39999 21.9,28.5 12.1,11.19999 20.20001,25.6 35.4,30.69999 5.10001,1.7 10.4,2.5 15.7,2.30001 21.10001,-0.7 43.2,-15.30001 58.89999,-32.80001 19.9,-22.19999 33.4,-47.09999 51.60001,-67.399998 9.10001,-10.099998 19.39999,-19.099998 30.60001,-26.799999 31.5,-21.399998 70.5,-33 111.80001,-34 3.10001,-0.1 6.20002,-0.1 9.29999,0 53.20001,0.700001 106.79999,17.700001 144.89997,48.500004 9.20001,7.5 17.79998,15.800003 26.29998,24.099998 17.29999,16.799995 35.20002,33.099995 59.70002,40.400005 38.09997,11.19999 79.09997,-3.80001 114.5,-21.7 6.70001,-3.3 13.09997,-6.8 19.20001,-10.3 16.09997,-9.000003 32.40002,-18.600002 49.70001,-27.000003 24.40002,-12 51.29999,-21.799999 78.20001,-24.200001"
         style="fill:none;stroke:url(#linearGradient2992);stroke-width:1;stroke-linecap:butt;stroke-linejoin:miter;stroke-miterlimit:10;stroke-dasharray:none;stroke-opacity:1"
         id="path2994"
         inkscape:connector-curvature="0" />
      <path
         d="M 0.69999999,119.6 C 4.5,115.5 11.599999,110.3 18.800001,105.8 c 7,-4.40001 14.500002,-8.200002 22.500002,-10.000005 6.599999,-1.5 13.799999,-1.800003 20.400002,0.400002 1.2,0.400001 2.400001,0.900001 3.599998,1.5 C 75.800003,102.7 82.5,112.6 88.5,122.6 c 5.800003,9.79999 13.3,19.79999 20,27.00001 11.7,12.39999 20,27.6 35.5,33.6 5.2,2 10.7,3 16.2,3 21.69999,-0.1 44.69999,-14.39999 60.5,-32.3 20,-22.60001 32.90001,-48.8 50.8,-70.599999 9,-10.900002 19.29999,-20.599999 30.5,-29 31.70001,-23.5 71.39999,-36.900002 113.29999,-38.5 3.1,-0.100001 6.29999,-0.2 9.39999,-0.2 53.9,0.2 108.19998,18.799998 146.19998,52.299998 9.20002,8.099999 17.70002,17.199997 26.20002,26.099999 C 614.39996,112.20001 632.19995,129.8 657,137.8 695.5,150.10001 737.09998,134.40001 772.79999,115 779.5,111.3 786,107.6 792.20001,103.7 808.40002,93.699997 824.90002,83.199997 842.29999,74 867.20001,61 894,50.599998 921.70001,49"
         style="fill:none;stroke:url(#linearGradient3002);stroke-width:1;stroke-linecap:butt;stroke-linejoin:miter;stroke-miterlimit:10;stroke-dasharray:none;stroke-opacity:1"
         id="path3004"
         inkscape:connector-curvature="0" />
      <path
         d="M 0.60000002,122 C 3.6999998,117 9.8000002,111.9 16.6,107.8 c 6.5,-4 13.699999,-7 21.300002,-8.3 6.299999,-1 12.900001,-0.800003 18.900001,1.5 1.099999,0.4 2.200001,0.9 3.299999,1.4 9.600003,4.80001 16.200001,13.5 22.000004,22.5 5.699997,8.9 12.300003,18.20001 18.100004,25.49999 11.09999,13.7 19.79999,29.60001 35.7,36.4 5.39999,2.3 11,3.5 16.6,3.69999 22.4,0.80001 46.2,-13.5 62.1,-31.69999 20.1,-22.9 32.3,-50.5 50,-73.800005 8.79998,-11.599999 19.1,-22 30.5,-31.200001 31.79998,-25.5 72.39999,-40.799999 114.80001,-43 3.20002,-0.2 6.4,-0.3 9.5,-0.3 C 474.00003,10.099984 529,30.499985 567,66.599983 c 9.20001,8.800003 17.59998,18.5 26.20001,28.200005 17.29999,19.600002 35,38.600002 60.09998,47.300002 38.90002,13.5 81,-2.89999 117,-24 6.79999,-4 13.29999,-8.1 19.59997,-12.3 16.40003,-10.900004 33,-22.500002 50.59998,-32.400004 24.90002,-14.2 51.79999,-25.2 80.09997,-26"
         style="fill:none;stroke:url(#linearGradient3012);stroke-width:1;stroke-linecap:butt;stroke-linejoin:miter;stroke-miterlimit:10;stroke-dasharray:none;stroke-opacity:1"
         id="path3014"
         inkscape:connector-curvature="0" />
      <path
         d="M 0.60000002,124.3 C 3,118.5 8.1999998,113.4 14.400001,109.70001 c 6.000001,-3.6 12.899998,-5.90001 20.000001,-6.5 5.900001,-0.5 12,0.19999 17.5,2.5 1,0.4 2,0.9 3,1.4 8.7,4.6 15.199996,12.1 20.799995,20.19999 5.5,7.9 11.099998,16.5 16.199997,23.9 10.300006,15 19.599996,31.6 35.900006,39.3 5.49999,2.60001 11.29999,4 17.09999,4.39999 C 168,196.5 192.59999,182.29999 208.7,163.7 c 20.19999,-23.30001 31.8,-52.30001 49.19999,-76.900005 8.70002,-12.300003 19,-23.5 30.4,-33.400001 C 320.29999,26 361.5,8.8000002 404.60001,6 407.80002,5.8000002 411,5.6999998 414.30002,5.5999999 469.60001,4.6999998 525.30005,26.700001 563.20001,65.5 c 9.20001,9.400002 17.59998,19.900002 26.09998,30.199997 C 606.5,116.7 624.20001,137 649.5,146.5 c 39.29999,14.60001 81.90002,-2.39999 118.20001,-25.1 6.79999,-4.3 13.40003,-8.69999 19.70001,-13.3 16.5,-11.800005 33.29999,-24.400003 51,-35.200006 C 863.5,57.599995 890.5,45.999992 919.5,45.899994"
         style="fill:none;stroke:url(#linearGradient3022);stroke-width:1;stroke-linecap:butt;stroke-linejoin:miter;stroke-miterlimit:10;stroke-dasharray:none;stroke-opacity:1"
         id="path3024"
         inkscape:connector-curvature="0" />
      <path
         d="m 918.5,44.5 c -50.70001,-1.299999 -93.29999,35 -133.5,65.8 -40.20001,30.80001 -92.20001,59.2 -139.29999,40.5 -38.29999,-15.19999 -58.59997,-56.099995 -86.40002,-86.499997 -40,-43.900001 -100.9,-67.9000015 -160.10001,-63.2000007 C 339.99997,5.8000031 283.60001,39.099998 251,88.699997 233.8,114.8 222.89999,145 202.60001,168.79999 c -20.29999,23.79999 -55.2,39.8 -83,25.5 -16.7,-8.60001 -26.800007,-25.80001 -36.100002,-42.10001 -9.299996,-16.3 -19.700001,-33.5 -36.599999,-41.69999 C 30.000011,102.29999 5,108.3 0.5,126.6"
         style="fill:none;stroke:url(#linearGradient3032);stroke-width:1;stroke-linecap:butt;stroke-linejoin:miter;stroke-miterlimit:10;stroke-dasharray:none;stroke-opacity:1"
         id="path3034"
         inkscape:connector-curvature="0" />
    </g>
  </g>
</svg>
